<?xml version="1.0" encoding="UTF-8" standalone="no"?>
<!-- Created with Inkscape (http://www.inkscape.org/) -->

<svg
   xmlns:dc="http://purl.org/dc/elements/1.1/"
   xmlns:cc="http://creativecommons.org/ns#"
   xmlns:rdf="http://www.w3.org/1999/02/22-rdf-syntax-ns#"
   xmlns:svg="http://www.w3.org/2000/svg"
   xmlns="http://www.w3.org/2000/svg"
   xmlns:xlink="http://www.w3.org/1999/xlink"
   xmlns:sodipodi="http://sodipodi.sourceforge.net/DTD/sodipodi-0.dtd"
   xmlns:inkscape="http://www.inkscape.org/namespaces/inkscape"
   width="210mm"
   height="297mm"
   id="svg2"
   version="1.1"
   inkscape:version="0.48.3.1 r9886"
   sodipodi:docname="attr_searchable.svg">
  <defs
     id="defs4">
    <linearGradient
       x1="1239.1"
       y1="1240.1"
       x2="1531.4"
       gradientUnits="userSpaceOnUse"
       y2="1171.2"
       id="linearGradient39340">
      <stop
         offset="0"
         stop-color="#a15835"
         id="stop38279" />
      <stop
         offset=".13454"
         stop-opacity=".78039"
         stop-color="#a15835"
         id="stop38285" />
      <stop
         offset=".41626"
         stop-color="#cc9c59"
         id="stop38287" />
      <stop
         offset=".79695"
         stop-opacity=".30196"
         stop-color="#a15835"
         id="stop38289" />
      <stop
         offset="1"
         stop-opacity="0"
         stop-color="#a15835"
         id="stop38281" />
    </linearGradient>
    <filter
       color-interpolation-filters="sRGB"
       id="filter38315">
      <feGaussianBlur
         stdDeviation="4.7734706"
         id="feGaussianBlur38317" />
    </filter>
    <filter
       color-interpolation-filters="sRGB"
       x="-.084191"
       y="-.12446"
       width="1.1684"
       height="1.2489"
       id="filter38323">
      <feGaussianBlur
         stdDeviation="15.478807"
         id="feGaussianBlur38325" />
    </filter>
    <radialGradient
       r="204.34"
       gradientTransform="matrix(0.99325,-0.116,0.11865,1.0159,-78.327,-24.865)"
       cx="193.74"
       cy="626.85"
       gradientUnits="userSpaceOnUse"
       id="radialGradient4104">
      <stop
         offset="0"
         stop-color="#f6eded"
         id="stop3908" />
      <stop
         offset="1"
         stop-opacity="0"
         stop-color="#1a1a1a"
         id="stop3910" />
    </radialGradient>
    <radialGradient
       r="73.489"
       gradientTransform="matrix(0.66026,0.012072,-0.0080034,0.30006,55.009,317.02)"
       cx="149.01"
       cy="525.54"
       gradientUnits="userSpaceOnUse"
       id="radialGradient4102">
      <stop
         offset="0"
         stop-color="#5c0101"
         id="stop3850" />
      <stop
         offset="1"
         id="stop3852" />
    </radialGradient>
    <linearGradient
       x1="-76.055"
       y1="564.44"
       x2="221.41"
       gradientUnits="userSpaceOnUse"
       y2="448.97"
       id="linearGradient4100"
       gradientTransform="matrix(1.3912,-0.23224,0.23337,1.2126,-187.96789,-132.78302)">
      <stop
         offset="0"
         stop-color="#fff"
         id="stop3918" />
      <stop
         offset="1"
         stop-opacity="0"
         stop-color="#fff"
         id="stop3920" />
    </linearGradient>
    <filter
       color-interpolation-filters="sRGB"
       id="filter3842">
      <feGaussianBlur
         stdDeviation="1.0811885"
         id="feGaussianBlur3844" />
    </filter>
    <radialGradient
       r="73.489"
       gradientTransform="matrix(1.3644526,-0.21685284,0.0812989,0.44773999,-114.72959,213.34943)"
       cx="148.24"
       cy="455.53"
       gradientUnits="userSpaceOnUse"
       id="radialGradient4098">
      <stop
         offset="0"
         id="stop3832" />
      <stop
         offset=".67416"
         stop-color="#360f0f"
         id="stop3838" />
      <stop
         offset="1"
         stop-color="#501616"
         id="stop3834" />
    </radialGradient>
    <linearGradient
       x1="490.18"
       y1="482.3"
       x2="434.87"
       gradientUnits="userSpaceOnUse"
       y2="444.67"
       id="linearGradient4094">
      <stop
         offset="0"
         stop-color="#808080"
         id="stop3810" />
      <stop
         offset="1"
         stop-opacity="0"
         stop-color="#808080"
         id="stop3812" />
    </linearGradient>
    <linearGradient
       x1="414.71"
       y1="431.09"
       x2="482.91"
       gradientUnits="userSpaceOnUse"
       y2="480.08"
       id="linearGradient4092">
      <stop
         offset="0"
         stop-color="#ccc"
         id="stop3798" />
      <stop
         offset=".47109"
         stop-color="#fff"
         id="stop3804" />
      <stop
         offset="1"
         stop-color="#ccc"
         id="stop3800" />
    </linearGradient>
    <linearGradient
       x1="425.8"
       y1="430.65"
       x2="472.81"
       gradientUnits="userSpaceOnUse"
       y2="465.89"
       id="linearGradient4090">
      <stop
         offset="0"
         stop-color="#484848"
         id="stop3784" />
      <stop
         offset=".13719"
         stop-color="#989797"
         id="stop3794" />
      <stop
         offset=".5"
         stop-color="#cbc8c8"
         id="stop3790" />
      <stop
         offset=".75"
         stop-color="#989797"
         id="stop3792" />
      <stop
         offset="1"
         stop-color="#353232"
         id="stop3786" />
    </linearGradient>
    <radialGradient
       gradientTransform="matrix(1 0 0 .72916 0 151.21)"
       r="204.34"
       cy="558.28"
       gradientUnits="userSpaceOnUse"
       cx="264.95"
       id="radialGradient4088">
      <stop
         offset="0"
         stop-color="#300404"
         id="stop3868" />
      <stop
         offset="1"
         stop-color="#2b0000"
         id="stop3870" />
    </radialGradient>
    <radialGradient
       r="396.43"
       gradientTransform="matrix(1,0,0,0.10811,0,677.84)"
       cx="436.43"
       cy="760"
       gradientUnits="userSpaceOnUse"
       id="radialGradient4086">
      <stop
         offset="0"
         stop-color="#1a1a1a"
         id="stop4057" />
      <stop
         offset="1"
         stop-opacity="0"
         stop-color="#1a1a1a"
         id="stop4059" />
    </radialGradient>
    <radialGradient
       inkscape:collect="always"
       xlink:href="#radialGradient4098"
       id="radialGradient4225"
       gradientUnits="userSpaceOnUse"
       gradientTransform="matrix(1.3644526,-0.21685284,0.0812989,0.44773999,2103.112,340.73623)"
       cx="148.24"
       cy="455.53"
       r="73.489" />
    <filter
       id="filter4129"
       style="color-interpolation-filters:sRGB;"
       inkscape:label="Drop Shadow">
      <feFlood
         id="feFlood4131"
         flood-opacity="0.25"
         flood-color="rgb(0,0,0)"
         result="flood" />
      <feComposite
         id="feComposite4133"
         in2="SourceGraphic"
         in="flood"
         operator="in"
         result="composite1" />
      <feGaussianBlur
         id="feGaussianBlur4135"
         in="composite"
         stdDeviation="0.1"
         result="blur" />
      <feOffset
         id="feOffset4137"
         dx="0.5"
         dy="1"
         result="offset" />
      <feComposite
         id="feComposite4139"
         in2="offset"
         in="SourceGraphic"
         operator="over"
         result="composite2" />
    </filter>
  </defs>
  <sodipodi:namedview
     id="base"
     pagecolor="#ffffff"
     bordercolor="#666666"
     borderopacity="1.0"
     inkscape:pageopacity="0.0"
     inkscape:pageshadow="2"
     inkscape:zoom="0.96932624"
     inkscape:cx="365.9198"
     inkscape:cy="851.70073"
     inkscape:document-units="px"
     inkscape:current-layer="layer1"
     showgrid="false"
     showguides="true"
     inkscape:guide-bbox="true"
     inkscape:window-width="1366"
     inkscape:window-height="715"
     inkscape:window-x="0"
     inkscape:window-y="0"
     inkscape:window-maximized="1" />
  <metadata
     id="metadata7">
    <rdf:RDF>
      <cc:Work
         rdf:about="">
        <dc:format>image/svg+xml</dc:format>
        <dc:type
           rdf:resource="http://purl.org/dc/dcmitype/StillImage" />
      </cc:Work>
    </rdf:RDF>
  </metadata>
  <g
     inkscape:label="Ebene 1"
     inkscape:groupmode="layer"
     id="layer1">
    <path
       style="fill:#222b00;stroke:#000000;stroke-width:0;stroke-miterlimit:4;stroke-opacity:1;stroke-dasharray:none"
       d=""
       id="path4300"
       inkscape:connector-curvature="0" />
    <path
       style="fill:#445500;stroke:#000000;stroke-width:0;stroke-miterlimit:4;stroke-opacity:1;stroke-dasharray:none"
       d=""
       id="path4312"
       inkscape:connector-curvature="0" />
    <path
       style="fill:#222b00;stroke:#000000;stroke-width:0;stroke-miterlimit:4;stroke-opacity:1;stroke-dasharray:none"
       d=""
       id="path4358"
       inkscape:connector-curvature="0" />
    <path
       style="fill:#999999;stroke:#000000;stroke-width:0.35714287;stroke-miterlimit:4;stroke-opacity:1;stroke-dasharray:none"
       d=""
       id="path4396"
       inkscape:connector-curvature="0" />
    <g
       id="g5193"
       transform="translate(532.83264,35.233218)">
      <g
         id="layer1-1"
         transform="matrix(-0.09483532,0,0,0.10021051,273.3938,533.61079)">
        <g
           id="g38327"
           transform="matrix(0.91279528,-0.38651032,0.43156618,0.91279528,-1417.4249,165.68842)">
          <g
             id="layer2"
             transform="translate(951.2802,34.638326)">
            <g
               id="g4063"
               transform="matrix(1.1485,0,0,1.1485,-55.885,15.784)">
              <g
                 id="g3924">
                <g
                   transform="translate(432.60996,-1215.8644)"
                   id="g5168">
                  <g
                     id="g3820"
                     style="fill:#000000;fill-opacity:0.17465754"
                     transform="translate(-154.73045,-151.11174)" />
                  <g
                     id="g4217"
                     transform="translate(2375.9426,33.927102)">
                    <path
                       style="fill:#351616;fill-opacity:1"
                       inkscape:connector-curvature="0"
                       id="path3874"
                       d="m 2585.0506,540.82594 65.3452,41.52053 c -74.798,127.15 -146.7931,171.47831 -214.1031,199.38831 -217.52,59.99 -202.04,-162.11 -195.72,-255.71 7.919,50.63 202.79,15.04 201.43,-32.14 l 37.143,68.571 c 9.4698,19.183 17.774,41.28 45.714,14.286 18.016,-15.278 37.9053,-32.52547 48.3683,-45.91447 z"
                       sodipodi:nodetypes="ccccccccc" />
                    <path
                       sodipodi:nodetypes="ccccccc"
                       style="fill:#2b1818;fill-opacity:1"
                       inkscape:connector-curvature="0"
                       id="path3002"
                       d="m 2568.6223,534.4622 77.3066,56.83935 77.4639,-119.60039 c 73.345,-97.143 149.18,-94.873 224.29,-121.43 20.894,-10.264 5.0568,-21.136 -16.429,-29.286 -113.62,18.63 -212.09,47.447 -263.57,107.86 z" />
                    <path
                       style="fill:url(#radialGradient4225)"
                       inkscape:connector-curvature="0"
                       id="path3010"
                       d="m 2444.6515,495.48488 c 3.8409,19.95697 -38.8188,43.77664 -95.2834,53.20256 -56.4647,9.42593 -105.3515,0.88858 -109.1923,-19.06839 -3.8409,-19.95697 38.8188,-43.77664 95.2834,-53.20257 52.5665,-8.77518 99.2789,-2.03127 108.0112,15.59475" />
                    <path
                       style="fill:#333333;filter:url(#filter3842)"
                       inkscape:connector-curvature="0"
                       id="path3780"
                       transform="matrix(0.92118,-0.15271,0.15453,0.79735,2133.4447,171.01978)"
                       d="m 221.73,455.53 c 0,16.458 -32.902,29.8 -73.489,29.8 -40.587,0 -73.489,-13.342 -73.489,-29.8 0,-16.458 32.902,-29.8 73.489,-29.8 37.785,0 69.413,11.619 73.132,26.867" />
                    <path
                       style="fill:#fffffc;fill-opacity:0.40410964"
                       inkscape:connector-curvature="0"
                       id="path3856"
                       d="m 2444.6515,495.48488 c 3.8409,19.95697 -38.8188,43.77664 -95.2834,53.20256 -56.4647,9.42593 -105.3515,0.88858 -109.1923,-19.06839 -3.8409,-19.95697 38.8188,-43.77664 95.2834,-53.20257 52.5665,-8.77518 99.2789,-2.03127 108.0112,15.59475" />
                    <path
                       style="fill:#5e0000;fill-opacity:1"
                       inkscape:connector-curvature="0"
                       id="path3846"
                       d="m 2406.8302,501.25985 c 2.4959,12.79165 -25.2249,28.05891 -61.9163,34.10029 -36.6915,6.04137 -68.4589,0.56903 -70.9547,-12.22262 -2.4959,-12.79165 25.2249,-28.05891 61.9163,-34.10029 34.1584,-5.6243 64.5128,-1.30149 70.1872,9.99614" />
                  </g>
                </g>
              </g>
            </g>
          </g>
        </g>
      </g>
      <path
         inkscape:connector-curvature="0"
         id="path5190"
         d="m -165.55985,246.35671 c -0.57588,-0.11574 -1.58894,-0.44397 -2.25125,-0.7293 -1.30767,-0.56339 -5.15931,-2.71589 -5.02476,-2.88647 0.0457,-0.0579 1.6803,-0.62569 3.52334,-0.63671 2.26332,0.30243 5.49798,0.51444 7.39515,-0.37821 3.46694,-1.63125 4.92303,-1.26722 9.33224,-6.27855 0.90611,-1.02986 2.98676,-1.89305 2.98676,-1.80907 0,0.084 -0.52762,1.13398 -1.17249,2.33336 -1.54193,2.86777 -4.70674,6.89027 -6.46676,8.21927 -2.48577,1.87703 -5.65527,2.70183 -8.32223,2.16568 z"
         style="fill:#ffffff;fill-opacity:0.92808216;stroke:none"
         sodipodi:nodetypes="ccccsssssc" />
      <g
         transform="translate(-555.22413,-12.891002)"
         id="g4765">
        <g
           id="g4591"
           transform="translate(161.42857,10)">
          <g
             id="g4466">
            <path
               style="fill:none;stroke:#000000;stroke-width:2.77347803;stroke-linecap:butt;stroke-linejoin:miter;stroke-miterlimit:4;stroke-opacity:1;stroke-dasharray:none"
               d="M 153.91956,60.309965 C -21.36605,47.699207 41.177698,220.29917 145.34813,191.54129"
               id="path2995"
               inkscape:connector-curvature="0"
               sodipodi:nodetypes="cc" />
            <path
               style="fill:none;stroke:#000000;stroke-width:2.77347803;stroke-linecap:butt;stroke-linejoin:miter;stroke-miterlimit:4;stroke-opacity:1;stroke-dasharray:none"
               d="m 229.99841,60.747751 c 175.2856,-12.610758 109.17042,159.683949 5,130.926079"
               id="path2995-0"
               inkscape:connector-curvature="0"
               sodipodi:nodetypes="cc" />
            <path
               style="fill:none;stroke:#000000;stroke-width:2.77347803;stroke-linecap:butt;stroke-linejoin:miter;stroke-miterlimit:4;stroke-opacity:1;stroke-dasharray:none"
               d="m 151.89925,60.309965 c 26.26397,-13.518093 52.52793,-13.24619 78.7919,0.863363"
               id="path3015"
               inkscape:connector-curvature="0"
               sodipodi:nodetypes="cc" />
            <path
               style="fill:none;stroke:#000000;stroke-width:2.77347803;stroke-linecap:butt;stroke-linejoin:miter;stroke-miterlimit:4;stroke-opacity:1;stroke-dasharray:none"
               d="m 152.9094,60.309965 c 25.2596,42.622285 57.51538,36.512206 75.76144,0.863363"
               id="path3017"
               inkscape:connector-curvature="0"
               sodipodi:nodetypes="cc" />
            <path
               style="fill:none;stroke:#000000;stroke-width:2.77347803;stroke-linecap:butt;stroke-linejoin:miter;stroke-miterlimit:4;stroke-opacity:1;stroke-dasharray:none"
               d="m 153.91956,59.4466 c -0.35143,-42.312631 74.21506,-45.566328 74.75128,0.863365"
               id="path3019"
               inkscape:connector-curvature="0"
               sodipodi:nodetypes="cc" />
            <path
               style="fill:none;stroke:#000000;stroke-width:2.77347803;stroke-linecap:butt;stroke-linejoin:miter;stroke-miterlimit:4;stroke-opacity:1;stroke-dasharray:none"
               d="m 228.91069,59.856589 -3.5049,-22.796096 c -0.72261,-4.155563 7.99426,-0.421409 8.43836,2.036467 -1.34687,14.880173 -3.58659,11.550414 -4.93346,20.759629 z"
               id="path3021"
               inkscape:connector-curvature="0"
               sodipodi:nodetypes="cccc" />
            <path
               style="fill:none;stroke:#000000;stroke-width:2.77347803;stroke-linecap:butt;stroke-linejoin:miter;stroke-miterlimit:4;stroke-opacity:1;stroke-dasharray:none"
               d="m 153.37159,59.608628 3.5049,-22.796097 c 0.72261,-4.155563 -7.99426,-0.421409 -8.43836,2.036467 1.34687,14.880174 3.58659,11.550414 4.93346,20.75963 z"
               id="path3021-7"
               inkscape:connector-curvature="0"
               sodipodi:nodetypes="cccc" />
            <path
               style="fill:none;stroke:#000000;stroke-width:2.77347803;stroke-linecap:butt;stroke-linejoin:miter;stroke-miterlimit:4;stroke-opacity:1;stroke-dasharray:none"
               d="m 190.89286,26.520763 -16.42857,-5.79966 c -3.98063,-0.15792 -6.64779,2.807458 -1.96428,3.815567 z"
               id="path3059"
               inkscape:connector-curvature="0"
               sodipodi:nodetypes="cccc" />
            <path
               style="fill:none;stroke:#000000;stroke-width:2.77347803;stroke-linecap:butt;stroke-linejoin:miter;stroke-miterlimit:4;stroke-opacity:1;stroke-dasharray:none"
               d="m 190.84944,26.321177 16.42857,-5.79966 c 3.98063,-0.15792 6.64779,2.807457 1.96428,3.815566 z"
               id="path3059-1"
               inkscape:connector-curvature="0"
               sodipodi:nodetypes="cccc" />
            <path
               style="fill:none;stroke:#000000;stroke-width:2.77347803;stroke-linecap:butt;stroke-linejoin:miter;stroke-miterlimit:4;stroke-opacity:1;stroke-dasharray:none"
               d="M 151.42857,60.860858 C 114.95543,114.56474 120.29344,149.55088 150.35715,175.63308"
               id="path3079"
               inkscape:connector-curvature="0"
               sodipodi:nodetypes="cc" />
            <path
               style="fill:none;stroke:#000000;stroke-width:2.77347803;stroke-linecap:butt;stroke-linejoin:miter;stroke-miterlimit:4;stroke-opacity:1;stroke-dasharray:none"
               d="m 228.56697,60.708232 c 36.47314,53.703888 33.99227,86.702858 3.92856,112.785058"
               id="path3079-7"
               inkscape:connector-curvature="0"
               sodipodi:nodetypes="cc" />
            <path
               style="fill:none;stroke:#000000;stroke-width:2.77347803;stroke-linecap:butt;stroke-linejoin:miter;stroke-miterlimit:4;stroke-opacity:1;stroke-dasharray:none"
               d="m 171.42857,92.402021 0.35715,17.725419 c -4.76726,23.60564 -30.67666,44.76931 -21.42857,67.15397 0.52533,9.82598 13.6505,10.68415 22.14285,12.8203"
               id="path3099"
               inkscape:connector-curvature="0"
               sodipodi:nodetypes="cccc" />
            <path
               style="fill:none;stroke:#000000;stroke-width:2.77347803;stroke-linecap:butt;stroke-linejoin:miter;stroke-miterlimit:4;stroke-opacity:1;stroke-dasharray:none"
               d="m 209.50002,93.162071 -1e-5,18.796839 c 4.14857,23.08327 31.14049,38.12587 21.42857,67.15396 -0.52533,9.82599 -13.6505,10.68415 -22.14285,12.8203"
               id="path3099-8"
               inkscape:connector-curvature="0"
               sodipodi:nodetypes="cccc" />
            <path
               style="fill:none;stroke:#000000;stroke-width:2.77347803;stroke-linecap:butt;stroke-linejoin:miter;stroke-miterlimit:4;stroke-opacity:1;stroke-dasharray:none"
               d="m 152.14286,183.56946 c -6.04291,10.4155 -22.98301,19.58919 -43.21429,28.38781 28.69169,3.29831 53.41781,1.17371 63.21429,-21.36717"
               id="path3119"
               inkscape:connector-curvature="0"
               sodipodi:nodetypes="ccc" />
            <path
               style="fill:none;stroke:#000000;stroke-width:2.77347803;stroke-linecap:butt;stroke-linejoin:miter;stroke-miterlimit:4;stroke-opacity:1;stroke-dasharray:none"
               d="m 229.10714,184.6319 c 6.04291,10.4155 22.98301,19.58919 43.21429,28.38781 -28.69169,3.29831 -53.41781,1.17371 -63.21429,-21.36716"
               id="path3119-0"
               inkscape:connector-curvature="0"
               sodipodi:nodetypes="ccc" />
            <path
               style="fill:none;stroke:#000000;stroke-width:2.77347803;stroke-linecap:butt;stroke-linejoin:miter;stroke-miterlimit:4;stroke-opacity:1;stroke-dasharray:none"
               d="m 171.78572,186.40818 0,51.18969 c -0.0562,14.70551 -6.79611,23.6985 -15.35715,31.13502"
               id="path3139"
               inkscape:connector-curvature="0"
               sodipodi:nodetypes="ccc" />
            <path
               style="fill:none;stroke:#000000;stroke-width:2.77347803;stroke-linecap:butt;stroke-linejoin:miter;stroke-miterlimit:4;stroke-opacity:1;stroke-dasharray:none"
               d="m 156.42858,268.73289 c -10.70441,9.56436 -9.27422,19.1287 0,28.69306 8.89572,7.52591 19.59666,9.65168 30.35714,11.59932 7.60712,-2.04516 12.35615,-7.14359 11.42858,-14.04128"
               id="path3141"
               inkscape:connector-curvature="0"
               sodipodi:nodetypes="cccc" />
            <path
               style="fill:none;stroke:#000000;stroke-width:2.77347803;stroke-linecap:butt;stroke-linejoin:miter;stroke-miterlimit:4;stroke-opacity:1;stroke-dasharray:none"
               d="m 209.46507,187.57727 0,51.54684 c -0.0562,14.70551 -6.79611,23.69849 -15.35715,31.13501"
               id="path3139-8"
               inkscape:connector-curvature="0"
               sodipodi:nodetypes="ccc" />
            <path
               style="fill:none;stroke:#000000;stroke-width:2.77347803;stroke-linecap:butt;stroke-linejoin:miter;stroke-miterlimit:4;stroke-opacity:1;stroke-dasharray:none"
               d="m 194.10793,270.25912 c -21.13406,12.37933 -13.62825,18.42419 4.64286,25.03012"
               id="path3141-2"
               inkscape:connector-curvature="0"
               sodipodi:nodetypes="cc" />
            <path
               style="fill:none;stroke:#000000;stroke-width:2.77347803;stroke-linecap:butt;stroke-linejoin:miter;stroke-miterlimit:4;stroke-opacity:1;stroke-dasharray:none"
               d="m 178.92857,189.06387 c 6.26694,-2.26521 11.80701,-5.56583 23.57143,0"
               id="path3164"
               inkscape:connector-curvature="0"
               sodipodi:nodetypes="cc" />
            <path
               style="fill:none;stroke:#000000;stroke-width:2.77347803;stroke-linecap:butt;stroke-linejoin:miter;stroke-miterlimit:4;stroke-opacity:1;stroke-dasharray:none"
               d="m 180.71429,206.46286 c 6.06202,-1.44055 11.88844,-3.28385 20.71428,0"
               id="path3166"
               inkscape:connector-curvature="0"
               sodipodi:nodetypes="cc" />
            <path
               style="fill:none;stroke:#000000;stroke-width:2.77347803;stroke-linecap:butt;stroke-linejoin:miter;stroke-miterlimit:4;stroke-opacity:1;stroke-dasharray:none"
               d="m 180.14286,224.77757 c 7.38095,-2.44197 14.76191,-2.44196 22.14286,0"
               id="path3168"
               inkscape:connector-curvature="0"
               sodipodi:nodetypes="cc" />
            <path
               style="fill:none;stroke:#000000;stroke-width:2.77347803;stroke-linecap:butt;stroke-linejoin:miter;stroke-miterlimit:4;stroke-opacity:1;stroke-dasharray:none"
               d="m 179.64286,240.95557 c 7.76684,-0.36668 15.19096,-8.5e-4 21.07143,3.66294"
               id="path3170"
               inkscape:connector-curvature="0"
               sodipodi:nodetypes="cc" />
            <path
               style="fill:none;stroke:#000000;stroke-width:2.77347803;stroke-linecap:butt;stroke-linejoin:miter;stroke-miterlimit:4;stroke-opacity:1;stroke-dasharray:none"
               d="m 172.14286,259.27029 c 12.06477,-1.17927 14.30031,2.89203 19.28571,5.49441"
               id="path3172"
               inkscape:connector-curvature="0"
               sodipodi:nodetypes="cc" />
            <path
               style="fill:none;stroke:#000000;stroke-width:2.77347803;stroke-linecap:butt;stroke-linejoin:miter;stroke-miterlimit:4;stroke-opacity:1;stroke-dasharray:none"
               d="m 157.14286,275.44828 c 7.89494,-1.92837 14.35494,-0.17751 20.35714,2.74721"
               id="path3174"
               inkscape:connector-curvature="0"
               sodipodi:nodetypes="cc" />
            <path
               style="fill:none;stroke:#000000;stroke-width:2.77347803;stroke-linecap:butt;stroke-linejoin:miter;stroke-miterlimit:4;stroke-opacity:1;stroke-dasharray:none"
               d="m 162.14286,297.12071 c 2.21395,-5.97094 9.22657,-7.02027 16.07143,-8.24163"
               id="path3176"
               inkscape:connector-curvature="0"
               sodipodi:nodetypes="cc" />
            <path
               style="fill:none;stroke:#000000;stroke-width:2.77347803;stroke-linecap:butt;stroke-linejoin:miter;stroke-miterlimit:4;stroke-opacity:1;stroke-dasharray:none"
               d="m 180,303.2256 c -0.39495,-3.63979 4.03504,-5.90498 9.28572,-7.93637"
               id="path3178"
               inkscape:connector-curvature="0"
               sodipodi:nodetypes="cc" />
            <path
               style="fill:none;stroke:#000000;stroke-width:1.95700002;stroke-linecap:butt;stroke-linejoin:miter;stroke-miterlimit:4;stroke-opacity:1;stroke-dasharray:none"
               d="m 170.79323,93.788521 c -8.63596,-3.79587 -16.25965,-2.61642 -22.56024,5.06603 6.80162,6.505079 14.46858,11.058519 22.9983,5.572639"
               id="path3991"
               inkscape:connector-curvature="0"
               sodipodi:nodetypes="ccc" />
            <path
               style="fill:none;stroke:#000000;stroke-width:1.97899997;stroke-linecap:butt;stroke-linejoin:miter;stroke-miterlimit:4;stroke-opacity:1;stroke-dasharray:none"
               d="m 210.39827,94.501551 c 9.1696,-3.61541 17.26438,-2.49201 23.9543,4.8252 -7.22191,6.195809 -15.36264,10.532799 -24.41943,5.307709"
               id="path3991-1"
               inkscape:connector-curvature="0"
               sodipodi:nodetypes="ccc" />
            <path
               style="fill:none;stroke:#000000;stroke-width:2.77347803;stroke-linecap:butt;stroke-linejoin:miter;stroke-miterlimit:4;stroke-opacity:1;stroke-dasharray:none"
               d="m 160.99062,55.777303 c 0.68814,-7.942619 4.53466,-16.37604 12.62691,-25.469239"
               id="path4011"
               inkscape:connector-curvature="0"
               sodipodi:nodetypes="cc" />
            <path
               style="fill:none;stroke:#000000;stroke-width:2.77347803;stroke-linecap:butt;stroke-linejoin:miter;stroke-miterlimit:4;stroke-opacity:1;stroke-dasharray:none"
               d="m 174.37514,51.676323 c 1.65714,-7.983605 4.22157,-16.053371 11.8693,-24.605874"
               id="path4013"
               inkscape:connector-curvature="0"
               sodipodi:nodetypes="cc" />
            <path
               style="fill:none;stroke:#000000;stroke-width:2.77347803;stroke-linecap:butt;stroke-linejoin:miter;stroke-miterlimit:4;stroke-opacity:1;stroke-dasharray:none"
               d="m 191.29519,50.165436 0,-23.526669"
               id="path4015"
               inkscape:connector-curvature="0" />
            <path
               style="fill:none;stroke:#000000;stroke-width:2.77347803;stroke-linecap:butt;stroke-linejoin:miter;stroke-miterlimit:4;stroke-opacity:1;stroke-dasharray:none"
               d="M 221.85233,56.748587 C 221.16419,48.805968 217.57021,39.509183 209.47796,30.415984"
               id="path4011-8"
               inkscape:connector-curvature="0"
               sodipodi:nodetypes="cc" />
            <path
               style="fill:none;stroke:#000000;stroke-width:2.77347803;stroke-linecap:butt;stroke-linejoin:miter;stroke-miterlimit:4;stroke-opacity:1;stroke-dasharray:none"
               d="M 208.72035,52.647607 C 207.06321,44.664002 204.24624,35.515031 196.59851,26.962528"
               id="path4013-4"
               inkscape:connector-curvature="0"
               sodipodi:nodetypes="cc" />
            <path
               style="fill:none;stroke:#000000;stroke-width:2.77347803;stroke-linecap:butt;stroke-linejoin:miter;stroke-miterlimit:4;stroke-opacity:1;stroke-dasharray:none"
               d="m 156.44494,47.575345 c 22.22335,-12.374884 45.45686,-12.374884 69.70052,0"
               id="path4038"
               inkscape:connector-curvature="0"
               sodipodi:nodetypes="cc" />
            <path
               style="fill:none;stroke:#000000;stroke-width:2.32393885;stroke-linecap:butt;stroke-linejoin:miter;stroke-miterlimit:4;stroke-opacity:1;stroke-dasharray:none"
               d="m 168.81931,80.119992 c 15.09053,-5.095907 30.14621,-3.727348 45.92262,0"
               id="path4040"
               inkscape:connector-curvature="0"
               sodipodi:nodetypes="cc" />
            <path
               style="fill:none;stroke:#000000;stroke-width:2.64710188;stroke-linecap:butt;stroke-linejoin:miter;stroke-miterlimit:4;stroke-opacity:1;stroke-dasharray:none"
               d="m 160.73809,70.944578 c 18.66902,-4.620599 35.99066,-5.159042 61.42286,0.07339"
               id="path4042"
               inkscape:connector-curvature="0"
               sodipodi:nodetypes="cc" />
            <path
               style="fill:none;stroke:#000000;stroke-width:3;stroke-linecap:butt;stroke-linejoin:miter;stroke-miterlimit:4;stroke-opacity:1;stroke-dasharray:none"
               d="m 47.142857,102.00504 c 5.386455,7.15931 8.445426,7.28624 15.714286,7.85714"
               id="path4044"
               inkscape:connector-curvature="0"
               sodipodi:nodetypes="cc" />
            <path
               style="fill:none;stroke:#000000;stroke-width:3;stroke-linecap:butt;stroke-linejoin:miter;stroke-miterlimit:4;stroke-opacity:1;stroke-dasharray:none"
               d="m 59.285714,163.07647 c 5.883608,2.4445 11.493342,3.24577 16.428572,0"
               id="path4046"
               inkscape:connector-curvature="0"
               sodipodi:nodetypes="cc" />
            <path
               style="fill:none;stroke:#000000;stroke-width:3;stroke-linecap:butt;stroke-linejoin:miter;stroke-miterlimit:4;stroke-opacity:1;stroke-dasharray:none"
               d="m 333.57143,99.325741 c -5.38645,7.159309 -8.44542,7.286239 -15.71428,7.857139"
               id="path4044-1"
               inkscape:connector-curvature="0"
               sodipodi:nodetypes="cc" />
            <path
               style="fill:none;stroke:#000000;stroke-width:3;stroke-linecap:butt;stroke-linejoin:miter;stroke-miterlimit:4;stroke-opacity:1;stroke-dasharray:none"
               d="m 324.28571,160.39717 c -5.8836,2.4445 -11.49334,3.24577 -16.42857,0"
               id="path4046-5"
               inkscape:connector-curvature="0"
               sodipodi:nodetypes="cc" />
            <path
               style="fill:none;stroke:#000000;stroke-width:3;stroke-linecap:butt;stroke-linejoin:miter;stroke-miterlimit:4;stroke-opacity:1;stroke-dasharray:none"
               d="m 191.2952,50.40725 0.50508,39.395951"
               id="path4085"
               inkscape:connector-curvature="0" />
            <path
               style="fill:none;stroke:#000000;stroke-width:3;stroke-linecap:butt;stroke-linejoin:miter;stroke-miterlimit:4;stroke-opacity:1;stroke-dasharray:none"
               d="m 208.46779,52.680093 0,32.072348"
               id="path4087"
               inkscape:connector-curvature="0" />
            <path
               style="fill:none;stroke:#000000;stroke-width:3;stroke-linecap:butt;stroke-linejoin:miter;stroke-miterlimit:4;stroke-opacity:1;stroke-dasharray:none"
               d="m 174.12261,52.175017 0,32.072344"
               id="path4089"
               inkscape:connector-curvature="0"
               sodipodi:nodetypes="cc" />
            <path
               style="fill:none;stroke:#000000;stroke-width:3;stroke-linecap:butt;stroke-linejoin:miter;stroke-miterlimit:4;stroke-opacity:1;stroke-dasharray:none"
               d="m 161.24316,55.963089 -0.25254,15.657364"
               id="path4091"
               inkscape:connector-curvature="0" />
            <path
               style="fill:none;stroke:#000000;stroke-width:3;stroke-linecap:butt;stroke-linejoin:miter;stroke-miterlimit:4;stroke-opacity:1;stroke-dasharray:none"
               d="m 221.59978,57.225779 0,14.647212"
               id="path4093"
               inkscape:connector-curvature="0" />
            <path
               style="fill:none;stroke:#000000;stroke-width:3;stroke-linecap:butt;stroke-linejoin:miter;stroke-miterlimit:4;stroke-opacity:1;stroke-dasharray:none"
               d="m 153.66702,60.003699 75.25636,0.505076"
               id="path4097"
               inkscape:connector-curvature="0" />
            <path
               style="fill:none;stroke:#000000;stroke-width:2.63755322;stroke-linecap:butt;stroke-linejoin:miter;stroke-miterlimit:4;stroke-opacity:1;stroke-dasharray:none"
               d="m 179.17337,87.025281 c 8.44061,-2.34655 16.99458,-1.73612 24.7908,0"
               id="path4099"
               inkscape:connector-curvature="0"
               sodipodi:nodetypes="cc" />
            <path
               style="fill:#e6e6e6;stroke:#000000;stroke-width:1;stroke-miterlimit:4;stroke-opacity:1;stroke-dasharray:none"
               d="m 182.0969,307.37928 c -12.89606,-2.71774 -20.00456,-5.88173 -25.54322,-11.36931 -4.29701,-4.25738 -6.28907,-8.0702 -6.66532,-12.75752 -0.38715,-4.82312 1.44041,-8.1187 8.37155,-15.0962 8.98454,-9.0446 12.23207,-14.8358 13.7061,-24.44157 0.37941,-2.47244 0.75289,-40.11682 0.55498,-55.93719 -0.0265,-2.11922 -1.40494,-2.26286 -1.63003,-0.16986 l -0.15827,1.47166 -5.58387,-1.41127 c -10.08371,-2.54855 -13.17775,-4.8778 -14.11149,-10.6234 -0.20315,-1.25007 -0.60288,-2.56189 -0.88829,-2.91517 -0.28541,-0.35328 -0.62907,-2.74812 -0.7637,-5.32186 -0.44123,-8.43561 1.87891,-14.91517 11.59976,-32.39517 9.53788,-17.15095 11.5172,-22.43541 11.51233,-30.7359 -0.002,-2.83303 -0.14859,-7.020755 -0.32649,-9.306061 -0.29592,-3.801201 -0.41396,-4.151818 -1.38594,-4.116548 -0.58435,0.0212 -2.7671,-0.341117 -4.85054,-0.805159 -2.33936,-0.521042 -4.6573,-0.724227 -6.06091,-0.531283 -3.35276,0.460876 -8.02274,2.919666 -10.6066,5.584483 l -2.27285,2.344051 2.91613,2.670357 c 3.46368,3.17176 8.21513,5.63193 11.78831,6.10367 2.32465,0.3069 5.47872,-0.28011 8.65534,-1.61086 1.19523,-0.50071 0.71631,4.72038 -0.86629,9.44412 -1.65252,4.93245 -3.97063,9.74405 -9.12723,18.94496 -5.15837,9.20408 -9.43967,17.96272 -10.91213,22.32391 -1.10476,3.27213 -1.32941,4.88125 -1.38162,9.89633 l -0.0624,5.98885 -3.44811,-3.67859 c -21.39789,-22.82817 -23.48195,-49.1432 -6.59729,-83.30294 3.66554,-7.415857 5.43501,-10.525881 12.44312,-21.870076 l 1.80989,-2.929716 3.58466,5.26622 c 8.91544,13.097639 19.26966,21.450157 29.58338,23.864238 4.46857,1.045936 11.89862,0.721223 15.9342,-0.696367 9.90931,-3.48087 18.08468,-10.903438 25.25477,-22.92926 l 2.3194,-3.890135 4.39827,7.044394 c 27.10395,43.410432 28.34061,73.361502 4.05525,98.215592 l -3.45463,3.53554 -0.35959,-5.80838 c -0.58822,-9.50158 -2.79392,-14.95816 -12.14788,-30.05204 -8.63059,-13.92664 -10.99852,-19.52134 -10.99852,-25.98624 l 0,-3.40394 2.90419,0.98779 c 5.74881,1.95533 12.37474,0.26361 19.1929,-4.90029 1.7362,-1.31495 3.15673,-2.558648 3.15673,-2.763772 0,-0.755549 -5.38774,-4.770528 -8.07123,-6.014729 -3.579,-1.659411 -9.11303,-2.038901 -13.4034,-0.919124 -1.67164,0.436294 -3.56294,0.656339 -4.20288,0.488989 l -1.16355,-0.304273 0.17492,11.053729 c 0.15998,10.10868 0.27703,11.33442 1.36919,14.33673 1.78769,4.91433 3.68886,8.48969 9.39994,17.67767 2.84907,4.58357 6.0157,9.85775 7.03695,11.7204 4.99702,9.11402 6.46737,18.56677 4.35861,28.02109 -1.8456,8.27442 -2.92433,9.82741 -8.45615,12.17386 -2.27329,0.96426 -10.45468,3.13796 -11.8107,3.13796 -0.26703,0 -0.48552,-0.79549 -0.48552,-1.76776 0,-1.23463 -0.22848,-1.76777 -0.75761,-1.76777 -0.55517,0 -0.75663,0.57359 -0.75393,2.14658 0.0417,24.29247 -0.46634,56.15098 -0.92663,58.10597 -2.21327,9.4006 -9.0218,18.87067 -17.51234,24.35811 -4.83665,3.12592 -8.59184,6.80218 -9.37635,9.17928 -1.58243,4.79481 1.58882,8.3635 11.05722,12.443 2.8484,1.22724 5.30888,2.36132 5.46774,2.52018 0.15886,0.15886 0.005,1.47079 -0.34128,2.91542 -0.75978,3.16714 -3.22581,6.09935 -6.52274,7.75583 -3.46392,1.74037 -3.97166,1.78802 -8.61835,0.80877 z m -1.08831,-5.57371 c 0.54629,-1.5671 3.90819,-4.046 7.00682,-5.16647 0.9117,-0.32968 1.65764,-0.89468 1.65764,-1.25556 0,-0.91556 -0.58849,-0.82989 -3.67448,0.53488 -3.59914,1.59171 -6.25644,3.98357 -6.53512,5.88232 -0.29469,2.00782 0.84565,2.01138 1.54514,0.005 l 0,-2.2e-4 z m -15.15112,-8.19858 c 1.58958,-1.33755 4.86951,-2.49645 9.95722,-3.51821 1.71103,-0.34362 2.74668,-0.81098 2.74668,-1.2395 0,-0.37833 -0.28411,-0.68629 -0.63135,-0.68434 -1.89787,0.0106 -9.47088,2.229 -11.6405,3.40985 -2.92628,1.59268 -5.53577,4.97336 -4.38691,5.68339 0.49189,0.304 0.94843,0.0235 1.53705,-0.94443 0.46053,-0.75728 1.54855,-1.97533 2.41781,-2.70676 l 0,0 z m 11.79898,-16.14028 c -0.90245,-0.88046 -8.77789,-3.1001 -11.79905,-3.32548 -4.42222,-0.32989 -9.01431,0.24544 -9.01431,1.12939 0,0.53326 1.02605,0.61908 4.92449,0.41191 5.16094,-0.27426 8.76209,0.34916 13.34295,2.30988 1.52942,0.65463 2.29586,0.76901 2.54592,0.37997 0.19678,-0.30613 0.19678,-0.71368 0,-0.90567 l 0,0 z m 14.0369,-12.7688 c 0,-1.01347 -6.60141,-4.84693 -9.7556,-5.66512 -3.70698,-0.96158 -9.94237,-0.90719 -9.94237,0.0867 0,0.60442 0.74743,0.75761 3.6964,0.75761 4.59325,0 7.73769,0.92258 11.96096,3.50934 3.66121,2.24249 4.04061,2.36563 4.04061,1.31145 l 0,0 z m 9.45297,-20.30026 c 0.0947,-0.28413 -0.68658,-0.9021 -1.7362,-1.37327 -3.62984,-1.62942 -7.48956,-2.39013 -13.65141,-2.69054 -5.52835,-0.26953 -6.18719,-0.21315 -6.18719,0.52944 0,0.71341 0.68321,0.8311 4.82479,0.8311 5.19643,0 11.02213,1.07725 13.86303,2.56345 1.85031,0.96798 2.59885,1.00423 2.88698,0.13982 l 0,0 z m -17.02911,-19.91138 c 3.23735,-0.85563 11.30135,-0.74714 14.86192,0.19995 2.89275,0.76945 3.8259,0.73705 3.8259,-0.13284 0,-0.87326 -6.82164,-2.10149 -11.64001,-2.09577 -5.79814,0.007 -11.67898,1.25371 -11.2452,2.38414 0.15203,0.39616 0.64724,0.61341 1.10047,0.48276 0.45324,-0.13063 1.84685,-0.50785 3.09692,-0.83824 l 0,0 z m 6.06091,-18.94796 c 2.70721,-0.23804 4.65277,-0.11138 6.81853,0.44391 4.56018,1.1692 4.54569,1.16799 4.54569,0.37903 0,-2.9056 -20.30117,-2.80326 -20.86398,0.10517 -0.14067,0.72696 0.12993,0.7372 2.77792,0.10519 1.61357,-0.38512 4.6384,-0.8501 6.72184,-1.0333 z m -7.10904,-17.2252 c 5.23125,-1.8573 10.43439,-1.84802 15.50391,0.0277 4.16906,1.54253 4.23204,1.5521 4.23204,0.64322 0,-0.37814 -1.26522,-1.17169 -2.81159,-1.76346 -4.1521,-1.58891 -8.54477,-2.16591 -12.10227,-1.58969 -4.08136,0.66107 -9.3298,2.56049 -9.3298,3.37646 0,0.88669 0.0972,0.87172 4.50771,-0.6942 l 0,-1e-5 z"
               id="path4220"
               inkscape:connector-curvature="0" />
            <path
               style="fill:#e6e6e6;stroke:#000000;stroke-width:1;stroke-miterlimit:4;stroke-opacity:1;stroke-dasharray:none"
               d="m 248.00936,193.48477 c -2.50013,-0.34388 -6.39714,-1.02938 -8.66003,-1.52333 -4.06011,-0.88627 -4.14858,-0.93891 -6.71127,-3.99313 -1.92145,-2.28999 -2.51315,-3.35776 -2.27486,-4.10516 0.17713,-0.55559 0.83989,-2.94207 1.47279,-5.30331 1.13793,-4.24534 1.20109,-4.34376 5.67345,-8.83883 9.36972,-9.41731 15.01394,-19.14649 17.54283,-30.23928 0.1818,-0.79746 0.53946,-3.82778 0.7948,-6.73404 1.59202,-18.12036 -6.0017,-40.389242 -22.57637,-66.206101 -1.47756,-2.30146 -2.68647,-4.369113 -2.68647,-4.594786 0,-0.525844 9.3293,-1.06448 18.4882,-1.067433 27.79008,-0.009 51.07029,6.078205 66.93689,17.502245 6.47981,4.665505 12.77984,11.829172 16.03793,18.236504 l 1.09503,2.153475 -2.33592,2.497286 c -2.91841,3.12002 -5.5758,4.41939 -9.93975,4.86019 -2.37153,0.23954 -3.40927,0.55374 -3.40927,1.03223 0,1.62118 8.47303,0.0885 11.63866,-2.10523 1.1614,-0.80485 2.69295,-2.22551 3.40345,-3.15703 l 1.29182,-1.69366 0.87104,2.29465 c 2.05439,5.41209 2.72671,9.92125 2.71788,18.22858 -0.007,6.76402 -0.202,8.86331 -1.19525,12.87945 -2.04129,8.25386 -4.99869,15.28684 -9.40673,22.37011 -2.0937,3.36436 -2.38838,3.62364 -5.0567,4.44923 -4.94106,1.52879 -7.30343,1.64499 -10.61689,0.52221 -1.95344,-0.66194 -3.16495,-0.84216 -3.49204,-0.51948 -0.66512,0.65616 0.32763,1.26952 3.65879,2.26057 2.69253,0.80104 6.96608,0.63521 9.66529,-0.37507 0.66356,-0.24836 1.29006,-0.36797 1.39223,-0.2658 0.41997,0.41996 -6.68559,8.14811 -10.80287,11.74942 -17.64846,15.4368 -41.24243,22.7492 -63.51666,19.68552 z"
               id="path4222"
               inkscape:connector-curvature="0" />
            <path
               style="fill:#e6e6e6;stroke:#000000;stroke-width:1;stroke-miterlimit:4;stroke-opacity:1;stroke-dasharray:none"
               d="m 113.40653,193.4657 c -16.314711,-1.93738 -30.65994,-8.30863 -42.956456,-19.07856 -2.347497,-2.05606 -5.399568,-5.06671 -6.782382,-6.69033 -2.194634,-2.57681 -2.35513,-2.90839 -1.26269,-2.6086 0.688333,0.18888 2.842505,0.47939 4.787049,0.64555 4.13373,0.35325 8.443034,-0.89652 8.759622,-2.54043 0.143927,-0.74735 -0.01259,-0.86137 -0.753444,-0.54887 -4.769363,2.01182 -6.925309,2.19641 -11.561865,0.98995 -3.934022,-1.02367 -4.768219,-1.61937 -7.021461,-5.01402 -4.813058,-7.25118 -8.49128,-15.73893 -10.490404,-24.20733 -1.646717,-6.97558 -1.610616,-18.93521 0.07755,-25.69181 l 1.233357,-4.9363 2.302177,2.26136 c 2.835746,2.78546 5.203873,3.80762 9.693474,4.18402 2.999519,0.25147 3.467843,0.17852 3.467843,-0.54014 0,-0.64351 -0.494421,-0.83087 -2.192571,-0.83087 -4.483167,0 -9.095058,-2.25637 -11.491889,-5.62241 l -1.021249,-1.43421 1.52468,-3.163951 C 52.29237,93.296264 55.331465,89.110111 60.099648,84.338538 72.390977,72.038473 89.936199,64.705157 114.41668,61.635835 c 7.73278,-0.969522 25.42595,-1.488052 31.48313,-0.922669 l 4.46155,0.416445 -2.46915,3.788072 c -11.67866,17.916932 -19.22995,35.516507 -21.64619,50.450177 -1.03999,6.42766 -1.02978,17.39244 0.021,22.53334 2.6784,13.10425 8.64528,23.71765 19.15126,34.06472 3.35198,3.30127 3.8841,4.07904 4.36038,6.3733 0.29837,1.43724 0.85011,3.03386 1.22609,3.54804 0.59761,0.81728 0.50525,1.19094 -0.73427,2.97061 -0.77983,1.11965 -2.40424,2.98396 -3.6098,4.14291 -2.00446,1.92694 -2.62395,2.19645 -7.24271,3.15086 -5.59405,1.15595 -14.10837,2.09845 -18.10999,2.0047 -1.42897,-0.0335 -4.98462,-0.34426 -7.90144,-0.69064 l 3e-5,0 z"
               id="path4224"
               inkscape:connector-curvature="0" />
            <path
               style="fill:#ffffff;stroke:#000000;stroke-width:0;stroke-miterlimit:4;stroke-opacity:1;stroke-dasharray:none"
               d="m 119.74301,194.5581 c -0.97228,-0.0794 -3.92697,-0.41039 -6.566,-0.73563 -2.63902,-0.32525 -5.25279,-0.63799 -5.80837,-0.69497 -0.55559,-0.057 -1.35108,-0.23336 -1.76777,-0.39194 -0.41669,-0.15858 -2.54473,-0.7751 -4.72898,-1.37003 -2.184248,-0.59494 -4.989012,-1.51792 -6.23281,-2.05108 -1.243797,-0.53315 -2.448789,-0.85358 -2.677759,-0.71207 -0.228971,0.14151 -0.492544,0.0641 -0.585719,-0.17194 -0.171775,-0.43524 -8.942976,-5.09292 -9.639587,-5.11882 -0.208344,-0.008 -0.800111,-0.41183 -1.315038,-0.89796 -0.514926,-0.48614 -2.503664,-2.0155 -4.419417,-3.39858 -3.585848,-2.58882 -12.064836,-10.45568 -12.849525,-11.92188 -0.3962,-0.74031 0.0209,-0.80814 4.048881,-0.65846 5.540985,0.20591 9.105529,-0.88985 9.105529,-2.7991 0,-0.73702 -0.550838,-0.68247 -2.842507,0.2815 -2.434696,1.02413 -6.935574,1.00511 -10.546334,-0.0446 -1.989421,-0.57834 -3.158218,-1.30494 -4.310723,-2.67982 -2.265733,-2.70291 -6.799554,-10.80389 -8.385205,-14.98258 -0.745338,-1.96421 -1.546554,-3.64751 -1.780478,-3.74069 -0.233925,-0.0932 -0.319834,-0.34008 -0.190909,-0.54869 0.128925,-0.2086 -0.184431,-1.76261 -0.696346,-3.45336 -1.328378,-4.38733 -2.171537,-10.88128 -1.974286,-15.20581 l 0.169673,-3.7199 3.766858,5.23513 c 7.894841,10.97215 13.06139,17.10348 22.676943,26.91155 18.942057,19.32131 37.803279,31.21904 61.692009,38.91558 3.19461,1.02924 5.87001,1.93249 5.94535,2.0072 0.196,0.19439 -12.23175,1.73753 -15.5418,1.92982 -1.52785,0.0888 -3.57341,0.0964 -4.54568,0.0171 l 0,2e-5 z"
               id="path4246"
               inkscape:connector-curvature="0" />
            <path
               style="fill:#ffffff;stroke:#000000;stroke-width:0;stroke-miterlimit:4;stroke-opacity:1;stroke-dasharray:none"
               d="m 241.99835,191.95256 c -3.05571,-0.70868 -4.81749,-1.33952 -3.91507,-1.40187 0.90243,-0.0623 6.81182,-1.85944 13.13199,-3.99354 38.21878,-12.90518 63.38229,-30.82478 80.8412,-57.56916 4.78399,-7.32833 4.89622,-7.4211 4.89622,-4.04733 0,8.38134 -7.79592,28.6351 -12.84723,33.37706 -2.15599,2.02395 -3.44898,2.30648 -10.12903,2.2133 -6.67724,-0.0931 -7.41778,0.0685 -5.78463,1.26269 1.03623,0.75771 4.34328,1.36951 7.40285,1.36951 l 5.52995,0 -5.97556,6.4476 c -3.28655,3.54619 -6.55803,6.50088 -7.26994,6.56599 -0.71192,0.0651 -1.55605,0.80024 -1.87585,1.63362 -0.31979,0.83337 -0.94982,1.51523 -1.40005,1.51523 -0.45024,0 -4.26544,2.03782 -8.47823,4.52848 -4.21278,2.49067 -7.65961,4.30285 -7.65961,4.02706 0,-0.27579 -1.61372,0.17282 -3.58605,0.99692 -10.31275,4.30893 -31.12426,5.80106 -42.88096,3.07444 z"
               id="path4250"
               inkscape:connector-curvature="0" />
            <path
               style="fill:#b3b3b3;stroke:#000000;stroke-width:0;stroke-miterlimit:4;stroke-opacity:1;stroke-dasharray:none"
               d="m 50.497381,104.11884 c -2.528518,-2.52852 -2.470285,-2.79915 2.086829,-9.697989 1.792716,-2.713925 3.550566,-5.446068 3.906336,-6.071429 1.284106,-2.257165 10.560137,-9.786964 16.50578,-13.398533 14.639411,-8.892434 35.215234,-13.796297 58.204514,-13.871958 15.25718,-0.05021 15.53068,0.02463 6.71619,1.837973 -31.56079,6.492771 -58.672174,19.618469 -80.192959,38.824596 l -5.074929,4.5291 -2.151761,-2.15176 z"
               id="path4266"
               inkscape:connector-curvature="0" />
            <path
               style="fill:#b3b3b3;stroke:#000000;stroke-width:0;stroke-miterlimit:4;stroke-opacity:1;stroke-dasharray:none"
               d="m 46.470329,109.38412 c 0.581093,-4.48974 1.220145,-5.10197 3.164809,-3.03197 l 1.558239,1.65867 -2.590776,2.45794 -2.590776,2.45793 0.458504,-3.54257 z"
               id="path4268"
               inkscape:connector-curvature="0" />
            <path
               style="fill:#b3b3b3;stroke:#000000;stroke-width:0;stroke-miterlimit:4;stroke-opacity:1;stroke-dasharray:none"
               d="M 323.13707,102.6201 C 319.62094,98.670045 310.04141,90.42284 303.78935,85.963272 286.8932,73.911316 268.4943,66.468443 245.21793,62.26948 l -5.53572,-0.99862 9.82143,-0.07655 c 5.40179,-0.0421 9.98214,-0.03084 10.17857,0.02504 0.19643,0.05588 2.52679,0.306298 5.17857,0.556497 20.71987,1.954942 38.29502,7.689805 50.77795,16.569112 3.43126,2.440711 9.86883,8.859757 12.67417,12.637708 1.00423,1.352391 2.44468,3.629725 3.201,5.060743 l 1.37514,2.60185 -1.10214,1.36173 c -1.38048,1.70563 -5.33572,4.76956 -6.14273,4.75848 -0.33265,-0.005 -1.46084,-0.96998 -2.5071,-2.14536 l 0,0 z"
               id="path4272"
               inkscape:connector-curvature="0" />
            <path
               style="fill:#b3b3b3;stroke:#000000;stroke-width:0;stroke-miterlimit:4;stroke-opacity:1;stroke-dasharray:none"
               d="m 335.02675,116.65804 c -2.18887,-2.92617 -4.32869,-5.55995 -6.86118,-8.44504 l -1.52677,-1.73933 1.49903,-0.74166 c 0.82447,-0.40791 2.421,-1.68681 3.54786,-2.84199 2.33386,-2.39254 2.19368,-2.45437 3.46144,1.5266 1.10929,3.48335 1.57012,6.17072 1.8373,10.71429 0.13284,2.25893 0.21411,4.15149 0.18061,4.2057 -0.0335,0.0542 -0.99572,-1.15115 -2.13829,-2.67857 l 0,0 z"
               id="path4274"
               inkscape:connector-curvature="0" />
            <path
               style="fill:#aa8800;stroke:#000000;stroke-width:0;stroke-miterlimit:4;stroke-opacity:1;stroke-dasharray:none"
               d="m 174.63212,64.283627 0,-3.409265 8.08122,0 8.08122,0 0,2.875265 0,2.875264 -4.35628,0.169776 c -2.39595,0.09338 -5.99038,0.333677 -7.9876,0.534001 -1.99723,0.200323 -3.67345,0.364224 -3.72494,0.364224 -0.0515,0 -0.0936,-1.534169 -0.0936,-3.409265 z"
               id="path4282"
               inkscape:connector-curvature="0" />
            <path
               style="fill:#aa8800;stroke:#000000;stroke-width:0;stroke-miterlimit:4;stroke-opacity:1;stroke-dasharray:none"
               d="m 206.17013,67.83199 c -0.16147,-0.161466 -9.00086,-0.88646 -11.71376,-0.960746 l -2.27285,-0.06224 -0.0711,-2.967323 -0.0711,-2.967324 7.96296,0 7.96297,0 0,3.535534 0,3.535534 -0.8418,0 c -0.46298,0 -0.89284,-0.05105 -0.95523,-0.11344 l 0,0 z"
               id="path4284"
               inkscape:connector-curvature="0" />
            <path
               style="fill:#445500;stroke:#000000;stroke-width:0;stroke-miterlimit:4;stroke-opacity:1;stroke-dasharray:none"
               d="m 199.83429,59.67496 -7.75407,-0.07055 -0.0746,-4.28984 -0.0746,-4.289839 1.38896,0.0028 c 2.75767,0.0055 9.22328,0.843051 12.94257,1.676634 l 1.70464,0.382048 0,3.389023 c 0,1.863963 -0.0852,3.362316 -0.18941,3.329675 -0.10417,-0.03264 -3.67873,-0.0911 -7.94346,-0.129902 z"
               id="path4286"
               inkscape:connector-curvature="0" />
            <path
               style="fill:#445500;stroke:#000000;stroke-width:0;stroke-miterlimit:4;stroke-opacity:1;stroke-dasharray:none"
               d="m 207.1885,51.679754 c -0.39672,-0.389221 -7.74244,-1.380385 -13.42661,-1.811665 l -1.95717,-0.148498 0,-5.408023 0,-5.408023 1.0201,0 c 2.69066,0 11.0556,1.170134 11.52877,1.612708 0.37205,0.347989 2.66743,7.241219 3.1841,9.562104 0.29287,1.315593 0.30834,1.704633 0.0678,1.704633 -0.17145,0 -0.35908,-0.04646 -0.41695,-0.103236 z"
               id="path4288"
               inkscape:connector-curvature="0" />
            <path
               style="fill:#445500;stroke:#000000;stroke-width:0;stroke-miterlimit:4;stroke-opacity:1;stroke-dasharray:none"
               d="m 200.64355,38.512113 c -1.04172,-0.180314 -3.20092,-0.400223 -4.79822,-0.488688 -4.56222,-0.252671 -4.04061,0.465647 -4.04061,-5.564414 l 0,-5.172221 2.05362,0 c 2.01253,0 2.06999,0.01736 2.87191,0.867644 1.90081,2.015449 5.64398,7.682677 6.64101,10.054631 0.3448,0.820271 0.29341,0.82598 -2.72771,0.303048 z"
               id="path4290"
               inkscape:connector-curvature="0" />
            <path
               style="fill:#554400;stroke:#000000;stroke-width:0;stroke-miterlimit:4;stroke-opacity:1;stroke-dasharray:none"
               d="m 213.67488,41.691717 c -1.51377,-0.526151 -4.02851,-1.277571 -5.58832,-1.669824 l -2.83601,-0.713187 -0.94205,-1.907213 c -1.4355,-2.906187 -2.69268,-4.968056 -4.53243,-7.433518 l -1.67397,-2.243309 1.33386,0.17003 c 3.40243,0.433716 9.15184,2.417387 10.05292,3.468472 3.38493,3.948451 8.14755,11.366724 7.25911,11.306817 -0.17644,-0.0119 -1.55934,-0.452118 -3.07311,-0.978268 z"
               id="path4292"
               inkscape:connector-curvature="0" />
            <path
               style="fill:#554400;stroke:#000000;stroke-width:0;stroke-miterlimit:4;stroke-opacity:1;stroke-dasharray:none"
               d="m 219.58391,55.417004 c -1.37778,-0.60298 -7.34303,-2.535471 -8.90674,-2.885413 l -1.40721,-0.314922 -0.68959,-2.805356 c -0.37927,-1.542945 -1.12697,-4.082611 -1.66155,-5.643702 -0.53458,-1.56109 -0.97197,-2.884306 -0.97197,-2.940479 0,-0.289518 4.80803,1.097605 9.2464,2.667597 l 2.80668,0.992812 0.65874,1.690554 c 0.89288,2.291452 1.5716,4.587957 2.04519,6.920073 0.60956,3.001715 0.58004,3.062827 -1.11995,2.318836 z"
               id="path4294"
               inkscape:connector-curvature="0" />
            <path
               style="fill:#2b2200;stroke:#000000;stroke-width:0;stroke-miterlimit:4;stroke-opacity:1;stroke-dasharray:none"
               d="m 225.10133,57.759643 -2.69006,-1.248545 -0.17261,-1.417036 c -0.23744,-1.949356 -1.02753,-5.287533 -1.78685,-7.549486 -0.34861,-1.038509 -0.57514,-1.946902 -0.50339,-2.018651 0.0718,-0.07175 1.44052,0.475341 3.04171,1.215758 l 2.91127,1.346212 0.50862,1.658144 c 0.65822,2.145858 1.56049,7.355698 1.4597,8.428539 l -0.0783,0.83361 -2.69007,-1.248545 z"
               id="path4296"
               inkscape:connector-curvature="0" />
            <path
               style="fill:#2b2200;stroke:#000000;stroke-width:0;stroke-miterlimit:4;stroke-opacity:1;stroke-dasharray:none"
               d="m 223.11945,45.474175 c -0.76393,-0.401031 -2.02088,-0.969685 -2.79322,-1.263676 -1.32632,-0.504865 -1.45034,-0.628407 -2.23486,-2.226261 -1.08131,-2.202321 -2.95677,-5.288268 -4.54895,-7.484969 -0.69867,-0.963944 -1.22588,-1.797057 -1.17157,-1.851362 0.32862,-0.328624 4.51035,2.773916 6.60757,4.902344 1.99486,2.024537 3.49944,3.982843 4.85712,6.321848 1.0262,1.76795 1.24677,2.367324 0.86227,2.343137 -0.10417,-0.0066 -0.81444,-0.34003 -1.57836,-0.741061 z"
               id="path4298"
               inkscape:connector-curvature="0" />
            <path
               style="fill:#2b2200;stroke:#000000;stroke-width:0;stroke-miterlimit:4;stroke-opacity:1;stroke-dasharray:none"
               d="m 222.10929,58.854057 c 0,-0.555584 0.0852,-1.006749 0.18941,-1.002589 0.10417,0.0042 1.09854,0.449059 2.2097,0.988667 l 2.02031,0.981104 -2.20971,0.02148 -2.20971,0.02149 0,-1.010153 z"
               id="path4302"
               inkscape:connector-curvature="0" />
            <path
               style="fill:#2b2200;stroke:#000000;stroke-width:0;stroke-miterlimit:4;stroke-opacity:1;stroke-dasharray:none"
               d="m 222.10929,65.798856 0,-4.671955 2.90419,0 c 1.5973,0 2.90419,0.04299 2.90419,0.09554 0,0.515364 -5.36007,9.248375 -5.67639,9.248375 -0.0726,0 -0.13199,-2.10238 -0.13199,-4.671956 z"
               id="path4304"
               inkscape:connector-curvature="0" />
            <path
               style="fill:#554400;stroke:#000000;stroke-width:0;stroke-miterlimit:4;stroke-opacity:1;stroke-dasharray:none"
               d="m 218.70003,69.814354 c -1.68497,-0.339765 -6.35791,-1.148785 -8.64943,-1.497468 l -1.07329,-0.163313 -2e-4,-3.576471 -2e-4,-3.57647 6.06111,0.07188 6.06112,0.07188 0,4.536942 c 0,3.473851 -0.074,4.531382 -0.31567,4.513213 -0.17362,-0.01305 -1.11117,-0.184137 -2.08344,-0.38019 z"
               id="path4306"
               inkscape:connector-curvature="0" />
            <path
               style="fill:#554400;stroke:#000000;stroke-width:0;stroke-miterlimit:4;stroke-opacity:1;stroke-dasharray:none"
               d="m 212.26031,79.077694 c -1.04172,-0.241268 -2.20656,-0.517229 -2.58852,-0.613246 l -0.69448,-0.174577 0,-4.444026 0,-4.444026 1.57836,0.174195 c 0.8681,0.09581 3.56584,0.536703 5.99497,0.979769 3.5924,0.655243 4.43228,0.887 4.50063,1.241912 0.13234,0.687179 -5.93136,7.794421 -6.6049,7.741579 -0.16062,-0.0126 -1.14434,-0.220312 -2.18606,-0.46158 z"
               id="path4308"
               inkscape:connector-curvature="0" />
            <path
               style="fill:#554400;stroke:#000000;stroke-width:0;stroke-miterlimit:4;stroke-opacity:1;stroke-dasharray:none"
               d="m 208.97731,56.564196 c 0,-3.022185 0.0372,-3.289478 0.44194,-3.174869 3.1368,0.888243 7.08284,2.151889 9.0749,2.906069 l 2.47872,0.938421 0.0763,1.315197 0.0763,1.315196 -6.07412,0 -6.07411,0 0,-3.300014 z"
               id="path4310"
               inkscape:connector-curvature="0" />
            <path
               style="fill:#554400;stroke:#000000;stroke-width:0;stroke-miterlimit:4;stroke-opacity:1;stroke-dasharray:none"
               d="m 208.97731,81.620634 0,-2.2347 2.27341,0.509561 c 2.20296,0.493772 2.26,0.524369 1.84084,0.987539 -0.50069,0.553248 -3.72012,2.972299 -3.95574,2.972299 -0.0872,0 -0.15851,-1.005615 -0.15851,-2.234699 z"
               id="path4314"
               inkscape:connector-curvature="0" />
            <path
               style="fill:#aa8800;stroke:#000000;stroke-width:0;stroke-miterlimit:4;stroke-opacity:1;stroke-dasharray:none"
               d="m 192.30979,87.732399 0,-1.678772 2.46225,0.169943 c 2.38782,0.164806 6.61709,0.78167 7.38674,1.0774 0.98482,0.378405 -5.76476,2.096059 -8.27062,2.104736 l -1.57837,0.0055 0,-1.678773 z"
               id="path4316"
               inkscape:connector-curvature="0" />
            <path
               style="fill:#aa8800;stroke:#000000;stroke-width:0;stroke-miterlimit:4;stroke-opacity:1;stroke-dasharray:none"
               d="m 203.54774,86.359809 c -1.18121,-0.358644 -7.43344,-1.238504 -8.83884,-1.243865 -2.52877,-0.0096 -2.39911,0.208168 -2.39911,-4.030057 l 0,-3.72069 1.95717,0.101044 c 2.30205,0.118848 9.58072,0.983403 11.93243,1.417325 l 1.6415,0.302877 0.0709,2.782201 0.0709,2.7822 -1.74258,0.941204 c -0.95841,0.517663 -1.7858,0.931436 -1.83863,0.919498 -0.0528,-0.01194 -0.43699,-0.12522 -0.85368,-0.251737 z"
               id="path4318"
               inkscape:connector-curvature="0" />
            <path
               style="fill:#aa8800;stroke:#000000;stroke-width:0;stroke-miterlimit:4;stroke-opacity:1;stroke-dasharray:none"
               d="m 205.69431,77.765582 c -2.05451,-0.408644 -6.88908,-0.997987 -10.06298,-1.226696 -1.715,-0.123582 -3.14835,-0.260981 -3.18523,-0.305331 -0.0369,-0.04435 -0.14295,-1.92732 -0.2357,-4.18438 l -0.16864,-4.103745 1.85499,0 c 1.91317,0 11.79276,0.864697 13.24966,1.159658 l 0.82075,0.166168 0,4.38785 0,4.38785 -0.56821,-0.02767 c -0.31252,-0.01522 -1.0796,-0.129385 -1.70464,-0.253704 z"
               id="path4320"
               inkscape:connector-curvature="0" />
            <path
               style="fill:#aa8800;stroke:#000000;stroke-width:0;stroke-miterlimit:4;stroke-opacity:1;stroke-dasharray:none"
               d="m 174.68943,73.311866 0.069,-4.482552 2.65165,-0.2974 c 1.45841,-0.16357 5.04853,-0.379924 7.97805,-0.480788 l 5.3264,-0.183389 0.16631,1.591121 c 0.0915,0.875116 0.1663,2.767692 0.1663,4.205725 l 0,2.614606 -2.24019,0 c -2.58765,0 -8.87571,0.621947 -11.64427,1.151725 -1.04454,0.199879 -2.04385,0.363436 -2.22067,0.36346 -0.25083,3.4e-5 -0.30634,-0.985364 -0.25254,-4.482508 l 0,0 z"
               id="path4322"
               inkscape:connector-curvature="0" />
            <path
               style="fill:#aa8800;stroke:#000000;stroke-width:0;stroke-miterlimit:4;stroke-opacity:1;stroke-dasharray:none"
               d="m 176.7787,85.180174 -2.02031,-1.198572 0,-2.522447 0,-2.522447 2.27285,-0.428784 c 3.04659,-0.574755 9.35928,-1.219694 11.93242,-1.21908 l 2.08344,4.97e-4 0,3.75554 0,3.75554 -2.58851,0.176097 c -2.77119,0.188524 -6.57609,0.734219 -8.01642,1.149707 -1.33349,0.384666 -1.48744,0.344912 -3.66347,-0.946051 z"
               id="path4324"
               inkscape:connector-curvature="0" />
            <path
               style="fill:#aa8800;stroke:#000000;stroke-width:0;stroke-miterlimit:4;stroke-opacity:1;stroke-dasharray:none"
               d="m 186.35866,88.894145 c -1.25913,-0.264641 -3.01705,-0.75474 -3.90649,-1.089109 l -1.61717,-0.607943 1.38111,-0.273053 c 2.38936,-0.472388 5.26761,-0.795864 7.0815,-0.795864 l 1.74949,0 0,1.641498 0,1.641498 -1.19955,-0.01793 c -0.65976,-0.0099 -2.22976,-0.234455 -3.48889,-0.499096 l 0,-1e-6 z"
               id="path4326"
               inkscape:connector-curvature="0" />
            <path
               style="fill:#806600;stroke:#000000;stroke-width:0;stroke-miterlimit:4;stroke-opacity:1;stroke-dasharray:none"
               d="m 180.18425,36.728654 c 1.99131,-3.638129 5.80861,-8.835902 6.78206,-9.23471 0.23044,-0.09441 1.18607,-0.179642 2.12362,-0.189404 l 1.70463,-0.01775 0,5.154362 0,5.154362 -2.2097,0.151261 c -2.85805,0.195642 -7.52522,0.644153 -8.62824,0.829166 l -0.86268,0.144701 1.09031,-1.991988 0,0 z"
               id="path4328"
               inkscape:connector-curvature="0" />
            <path
               style="fill:#806600;stroke:#000000;stroke-width:0;stroke-miterlimit:4;stroke-opacity:1;stroke-dasharray:none"
               d="m 175.1372,50.872424 c 0,-0.560355 0.81071,-3.467065 1.94872,-6.986931 0.95181,-2.943931 1.26179,-3.62539 1.69174,-3.71919 0.79981,-0.174486 7.05815,-0.83547 9.55466,-1.009129 l 2.2097,-0.153708 0,5.298303 0,5.298303 -1.32582,0.137361 c -0.72921,0.07555 -2.34861,0.205774 -3.59867,0.289391 -1.25006,0.08362 -4.01023,0.370908 -6.13371,0.638426 -4.53755,0.571644 -4.34662,0.562543 -4.34662,0.207174 z"
               id="path4330"
               inkscape:connector-curvature="0" />
            <path
               style="fill:#806600;stroke:#000000;stroke-width:0;stroke-miterlimit:4;stroke-opacity:1;stroke-dasharray:none"
               d="m 174.87685,56.202407 c 0.10081,-1.840371 0.21283,-3.377275 0.24894,-3.415342 0.37318,-0.393387 8.0885,-1.3898 13.20653,-1.705588 l 2.58851,-0.159715 0,4.313388 0,4.313388 -8.11363,0 -8.11362,0 0.18327,-3.346131 z"
               id="path4332"
               inkscape:connector-curvature="0" />
            <path
               style="fill:#806600;stroke:#000000;stroke-width:0;stroke-miterlimit:4;stroke-opacity:1;stroke-dasharray:none"
               d="m 192.30354,58.963886 c -0.13546,-0.356282 -0.24629,-2.286749 -0.24629,-4.289927 l 0,-3.642142 1.95717,0.142056 c 4.86494,0.353107 13.31024,1.652125 13.79252,2.1215 0.12023,0.117009 0.13608,1.586043 0.0352,3.264521 l -0.18336,3.051778 -7.55449,0 -7.55449,0 -0.24629,-0.647786 z"
               id="path4334"
               inkscape:connector-curvature="0" />
            <path
               style="fill:#806600;stroke:#000000;stroke-width:0;stroke-miterlimit:4;stroke-opacity:1;stroke-dasharray:none"
               d="m 206.67615,51.417952 c -0.26483,-0.264823 -7.77178,-1.255439 -11.58844,-1.529207 -3.68799,-0.264539 -3.28299,0.438892 -3.28299,-5.702185 l 0,-5.313963 1.07328,0.131738 c 0.59031,0.07246 1.92561,0.198687 2.96733,0.280515 2.16321,0.16992 6.26477,0.785031 7.58089,1.136905 0.8361,0.223537 0.93611,0.368569 1.69168,2.453278 0.77319,2.133337 2.12298,6.520966 2.44907,7.960939 0.12779,0.564274 0.0696,0.694479 -0.31053,0.694479 -0.25729,0 -0.51842,-0.05062 -0.58029,-0.112499 l 0,0 z"
               id="path4336"
               inkscape:connector-curvature="0" />
            <path
               style="fill:#806600;stroke:#000000;stroke-width:0;stroke-miterlimit:4;stroke-opacity:1;stroke-dasharray:none"
               d="m 200.26474,38.38052 c -0.69448,-0.116292 -2.66035,-0.311489 -4.36861,-0.43377 -2.37245,-0.169825 -3.20738,-0.32371 -3.53553,-0.65163 -0.36774,-0.367471 -0.4422,-1.124443 -0.517,-5.255846 l -0.0874,-4.826545 1.92718,0.174636 c 1.05994,0.09605 2.08682,0.235898 2.28194,0.310774 0.79717,0.3059 5.31874,6.718111 6.80376,9.648674 l 0.66089,1.304193 -0.95127,-0.02952 c -0.5232,-0.01624 -1.51949,-0.124671 -2.21397,-0.240964 z"
               id="path4338"
               inkscape:connector-curvature="0" />
            <path
               style="fill:#554400;stroke:#000000;stroke-width:0;stroke-miterlimit:4;stroke-opacity:1;stroke-dasharray:none"
               d="m 165.84401,59.422662 -4.11616,-0.07616 0.0756,-1.410215 0.0755,-1.410215 1.64149,-0.620112 c 2.03662,-0.769376 7.87832,-2.523681 9.15451,-2.749166 l 0.94702,-0.167325 0,3.311101 0,3.311101 -1.8309,-0.05643 c -1.007,-0.03103 -3.68317,-0.0907 -5.94706,-0.132584 z"
               id="path4340"
               inkscape:connector-curvature="0" />
            <path
               style="fill:#554400;stroke:#000000;stroke-width:0;stroke-miterlimit:4;stroke-opacity:1;stroke-dasharray:none"
               d="m 161.81582,54.210352 c 0,-1.590769 2.43866,-9.166206 3.12919,-9.720491 0.58783,-0.471852 11.16164,-3.761738 11.37153,-3.538086 0.0508,0.05409 -0.34689,1.575692 -0.88367,3.381339 -0.53678,1.805648 -1.1632,4.135312 -1.39204,5.177032 -0.22885,1.04172 -0.48774,1.970937 -0.57531,2.064926 -0.13461,0.14448 -11.18951,3.490913 -11.53218,3.490913 -0.0646,0 -0.11752,-0.385035 -0.11752,-0.855633 z"
               id="path4342"
               inkscape:connector-curvature="0" />
            <path
               style="fill:#554400;stroke:#000000;stroke-width:0;stroke-miterlimit:4;stroke-opacity:1;stroke-dasharray:none"
               d="m 166.19802,41.61833 c 0.8428,-1.656034 4.15945,-6.439189 6.00959,-8.666813 l 1.90213,-2.290223 3.10224,-1.036649 c 2.93335,-0.980208 7.18933,-1.996762 7.41499,-1.771094 0.057,0.05696 -0.27011,0.549366 -0.72683,1.094229 -1.48978,1.777276 -3.14171,4.26091 -4.7678,7.168251 l -1.59603,2.853598 -3.28299,0.827743 c -1.80565,0.455258 -4.41942,1.23585 -5.80838,1.734649 -1.38896,0.498799 -2.55671,0.90694 -2.595,0.906982 -0.0383,4.1e-5 0.11834,-0.369262 0.34808,-0.820673 z"
               id="path4344"
               inkscape:connector-curvature="0" />
            <path
               style="fill:#554400;stroke:#000000;stroke-width:0;stroke-miterlimit:4;stroke-opacity:1;stroke-dasharray:none"
               d="m 161.75268,65.38298 0,-4.761156 4.38237,0 c 2.41031,0 5.0809,0.07301 5.93465,0.162245 l 1.55227,0.162245 0,3.466584 0,3.466584 -3.34613,0.541154 c -1.84037,0.297635 -4.51096,0.807182 -5.93465,1.132327 l -2.58851,0.591172 0,-4.761155 z"
               id="path4346"
               inkscape:connector-curvature="0" />
            <path
               style="fill:#554400;stroke:#000000;stroke-width:0;stroke-miterlimit:4;stroke-opacity:1;stroke-dasharray:none"
               d="m 165.62148,76.207181 c -3.05823,-3.131224 -4.3289,-4.62828 -4.09241,-4.821521 0.14415,-0.117793 7.41293,-1.620443 9.31498,-1.925656 0.90282,-0.144871 1.89719,-0.319797 2.20971,-0.388723 l 0.56821,-0.125321 0,4.618513 0,4.618513 -2.08344,0.589901 c -1.14589,0.324446 -2.20586,0.637693 -2.35549,0.696105 -0.14964,0.05841 -1.75234,-1.409403 -3.56156,-3.261811 z"
               id="path4348"
               inkscape:connector-curvature="0" />
            <path
               style="fill:#554400;stroke:#000000;stroke-width:0;stroke-miterlimit:4;stroke-opacity:1;stroke-dasharray:none"
               d="m 171.76714,81.828941 c -0.95071,-0.72037 -1.63256,-1.398863 -1.51523,-1.507762 0.28266,-0.262347 3.14065,-1.072586 3.28261,-0.930621 0.0609,0.06094 0.0771,0.929205 0.036,1.929474 l -0.0748,1.818673 -1.72856,-1.309764 z"
               id="path4350"
               inkscape:connector-curvature="0" />
            <path
               style="fill:#2b2200;stroke:#000000;stroke-width:0;stroke-miterlimit:4;stroke-opacity:1;stroke-dasharray:none"
               d="m 158.59595,67.847988 c -0.97227,-1.335928 -2.42856,-3.47992 -3.2362,-4.764427 l -1.46844,-2.335468 3.20736,-0.07093 c 1.76405,-0.03901 3.25132,-0.02698 3.30504,0.02675 0.0537,0.05373 0.0667,2.229641 0.0289,4.835362 l -0.0688,4.737676 -1.76777,-2.428959 0,0 z"
               id="path4352"
               inkscape:connector-curvature="0" />
            <path
               style="fill:#2b2200;stroke:#000000;stroke-width:0;stroke-miterlimit:4;stroke-opacity:1;stroke-dasharray:none"
               d="m 156.70192,58.692045 c 0.76392,-0.350897 1.92876,-0.854082 2.58851,-1.118189 l 1.19956,-0.480195 0,1.132736 0,1.132737 -2.58852,-0.01455 -2.58851,-0.01455 1.38896,-0.637993 z"
               id="path4354"
               inkscape:connector-curvature="0" />
            <path
               style="fill:#2b2200;stroke:#000000;stroke-width:0;stroke-miterlimit:4;stroke-opacity:1;stroke-dasharray:none"
               d="m 154.68196,56.991691 c 4.4e-4,-1.653918 0.58097,-4.957203 1.25776,-7.156794 l 0.52729,-1.71371 3.10076,-1.499513 c 1.70542,-0.824732 3.22478,-1.540851 3.37635,-1.591375 0.15157,-0.05052 0.005,0.578806 -0.3264,1.398512 -0.83228,2.060517 -1.79841,5.770222 -2.00489,7.698261 l -0.17241,1.609954 -2.87941,1.274513 -2.8794,1.274512 3.5e-4,-1.29436 0,0 z"
               id="path4356"
               inkscape:connector-curvature="0" />
            <path
               style="fill:#2b2200;stroke:#000000;stroke-width:0;stroke-miterlimit:4;stroke-opacity:1;stroke-dasharray:none"
               d="m 157.45953,46.033739 c 0,-0.366344 1.97965,-3.580186 3.10334,-5.038087 1.75681,-2.279318 5.14096,-5.379696 7.74369,-7.094354 1.30551,-0.86006 2.46594,-1.563745 2.57874,-1.563745 0.11279,0 -0.51035,0.937548 -1.38475,2.08344 -1.79894,2.357471 -3.82471,5.491282 -4.80715,7.436538 -0.64877,1.284577 -0.73082,1.344995 -3.85834,2.841054 -3.4483,1.649505 -3.37553,1.620724 -3.37553,1.335154 z"
               id="path4360"
               inkscape:connector-curvature="0" />
            <path
               style="fill:#2b2200;stroke:#000000;stroke-width:0;stroke-miterlimit:4;stroke-opacity:1;stroke-dasharray:none"
               d="m 153.05903,55.386624 c -0.10073,-0.448681 -0.67433,-2.039671 -1.27467,-3.535534 -0.60035,-1.495863 -1.32207,-3.799351 -1.60382,-5.118863 -0.64268,-3.009736 -1.14174,-7.195257 -0.94934,-7.961847 0.18354,-0.731265 2.71504,-2.449614 4.23629,-2.875538 1.69499,-0.47457 2.58546,-0.300325 2.68088,0.524588 0.0634,0.547828 -2.5603,18.668056 -2.82785,19.530439 -0.0431,0.138896 -0.16077,-0.114564 -0.26149,-0.563245 z"
               id="path4362"
               inkscape:connector-curvature="0" />
            <path
               style="fill:#2b2200;stroke:#000000;stroke-width:0;stroke-miterlimit:4;stroke-opacity:1;stroke-dasharray:none"
               d="m 228.70053,54.297645 c -1.19897,-7.086806 -2.74736,-17.771064 -2.62256,-18.096275 0.39329,-1.024895 4.75759,0.391366 6.38722,2.072722 l 0.79684,0.822129 -0.28947,2.492177 c -0.48232,4.152582 -1.23214,7.34142 -2.51116,10.679496 -0.6695,1.747294 -1.26789,3.342535 -1.32976,3.54498 -0.0619,0.202445 -0.25587,-0.479408 -0.43111,-1.515229 l 0,0 z"
               id="path4364"
               inkscape:connector-curvature="0" />
            <path
               style="fill:#2b2200;stroke:#000000;stroke-width:0;stroke-miterlimit:4;stroke-opacity:1;stroke-dasharray:none"
               d="m 174.40414,23.88116 c -3.75615,-0.612139 -4.48792,-1.262387 -2.09618,-1.862674 1.62155,-0.406984 9.0472,1.426866 9.0472,2.234313 0,0.404235 -3.25952,0.229964 -6.95102,-0.371639 l 0,0 z"
               id="path4366"
               inkscape:connector-curvature="0" />
            <path
               style="fill:#2b2200;stroke:#000000;stroke-width:0;stroke-miterlimit:4;stroke-opacity:1;stroke-dasharray:none"
               d="m 202.42659,23.162036 c 3.97444,-1.50893 7.19343,-1.826265 7.8442,-0.773297 0.50035,0.809586 -1.21416,1.230839 -7.12991,1.751803 l -4.28572,0.377417 3.57143,-1.355923 z"
               id="path4368"
               inkscape:connector-curvature="0" />
            <path
               style="fill:#ffffff;stroke:#000000;stroke-width:0;stroke-miterlimit:4;stroke-opacity:1;stroke-dasharray:none"
               d="m 181.9591,306.68838 c -12.72278,-2.77405 -19.57905,-5.88665 -25.17884,-11.43066 -3.40788,-3.37393 -5.32629,-6.72987 -6.02625,-10.54193 -0.7058,-3.84382 0.10835,-6.76387 2.92227,-10.48115 1.39854,-1.84751 7.35762,-8.16297 7.53498,-7.98561 0.0632,0.0632 -0.29856,1.14863 -0.80401,2.41196 -0.50545,1.26333 -1.05063,2.92451 -1.21151,3.6915 -0.24865,1.18547 -0.38853,1.4138 -0.93302,1.52301 -1.04205,0.20901 -1.8936,0.724 -1.98541,1.2007 -0.13286,0.68988 0.43774,1.17875 1.37582,1.17875 l 0.85296,0 0.002,1.45209 c 0.006,4.20582 1.63294,8.88695 4.39005,12.62762 0.64012,0.86848 1.16387,1.66873 1.16387,1.77832 0,0.10958 -0.49957,0.68953 -1.11015,1.28878 -2.07292,2.03441 -2.50323,4.33258 -0.8472,4.52464 0.73451,0.0852 0.99109,-0.12938 2.92442,-2.44547 l 1.09334,-1.3098 1.41639,1.29449 c 3.57772,3.26985 8.28609,6.37793 14.57967,9.62434 4.80625,2.4792 4.78656,2.67681 -0.1593,1.59842 z"
               id="path4372"
               inkscape:connector-curvature="0" />
            <path
               style="fill:#ffffff;stroke:#000000;stroke-width:0;stroke-miterlimit:4;stroke-opacity:1;stroke-dasharray:none"
               d="m 165.15071,186.95858 c -5.48943,-1.54241 -8.54981,-2.80884 -10.19905,-4.22053 -1.43055,-1.2245 -3.18281,-4.23331 -3.19032,-5.4781 -0.002,-0.31816 -0.31943,-1.56744 -0.70557,-2.77618 -1.55879,-4.87942 -1.28853,-11.17988 0.74465,-17.35963 0.92343,-2.80673 5.99619,-13.90172 6.24312,-13.65478 0.0503,0.0503 -0.21185,2.25092 -0.58251,4.89032 -1.40537,10.00742 -1.25138,20.07921 0.40684,26.61015 1.83873,7.24185 5.49068,11.35623 10.5427,11.87765 1.28264,0.13237 1.91871,0.35905 1.91871,0.68377 0,0.69366 -1.10763,0.57117 -5.17857,-0.57267 l 0,0 z"
               id="path4394"
               inkscape:connector-curvature="0" />
            <path
               style="fill:#ffffff;stroke:#000000;stroke-width:0;stroke-miterlimit:4;stroke-opacity:1;stroke-dasharray:none"
               d="m 211.04356,189.12664 c 0,-0.72246 0.65151,-1.10479 1.90421,-1.11748 1.3593,-0.0138 3.65808,-1.2906 5.21668,-2.89752 2.7231,-2.80755 4.48719,-7.31723 5.40649,-13.82103 0.61047,-4.31897 0.22024,-17.58119 -0.68482,-23.27361 -1.37671,-8.65891 -1.50548,-8.18977 1.07833,-3.92857 3.04101,5.01522 5.06401,9.49555 6.22263,13.78122 0.81666,3.02078 0.96281,4.30002 0.99607,8.71878 0.0343,4.56208 -0.0845,5.69673 -0.99841,9.53119 -2.00775,8.42398 -3.66428,9.92379 -13.9626,12.64172 -4.66061,1.23002 -5.17858,1.26656 -5.17858,0.3653 z"
               id="path4398"
               inkscape:connector-curvature="0" />
            <path
               style="fill:#b3b3b3;stroke:#000000;stroke-width:0;stroke-miterlimit:4;stroke-opacity:1;stroke-dasharray:none"
               d="m 123.80008,125.2442 c -4.84232,-18.29073 -2.4625,-32.378389 7.60902,-45.042689 2.64307,-3.32349 14.2241,-14.685093 14.59285,-14.316349 0.0842,0.08423 -1.2397,2.498862 -2.94207,5.36585 -6.77032,11.402054 -12.30418,23.68299 -15.09741,33.504748 -2.1348,7.50654 -2.64327,10.47604 -2.98933,17.45799 l -0.3115,6.28478 -0.86156,-3.25433 z"
               id="path4402"
               inkscape:connector-curvature="0" />
            <path
               style="fill:#b3b3b3;stroke:#000000;stroke-width:0;stroke-miterlimit:4;stroke-opacity:1;stroke-dasharray:none"
               d="m 256.323,121.93246 c -0.99748,-14.05262 -8.46589,-33.188499 -20.5166,-52.568549 -1.03689,-1.667539 -1.84874,-3.068406 -1.80411,-3.113038 0.16443,-0.16443 5.45058,4.710257 8.29586,7.65012 6.52306,6.739916 10.67975,13.182313 13.19183,20.445886 2.00835,5.807011 2.94538,13.353561 2.44585,19.697951 -0.23313,2.96096 -1.1846,9.91501 -1.38597,10.12977 -0.0346,0.0369 -0.1367,-0.97204 -0.22686,-2.24214 l 0,0 z"
               id="path4424"
               inkscape:connector-curvature="0" />
            <path
               inkscape:connector-curvature="0"
               id="path4587"
               d="m 235.92039,210.04961 c -11.07038,-2.97638 -20.44731,-9.25916 -21.78945,-14.59948 -0.28775,-1.14495 2.2968,-2.80482 6.67321,-4.28571 l 7.14285,-2.417 8.08289,6.42857 c 4.44559,3.53572 11.97103,8.43885 16.7232,10.89586 4.75217,2.457 8.23987,4.86771 7.75044,5.35714 -1.59629,1.59629 -16.65894,0.75111 -24.58314,-1.37938 z"
               style="fill:#ffffff;stroke:#000000;stroke-width:0;stroke-miterlimit:4;stroke-opacity:1;stroke-dasharray:none" />
            <path
               inkscape:connector-curvature="0"
               id="path4589"
               d="m 129.75659,204.34135 c 6.49527,-3.73515 14.40217,-9.18463 17.57088,-12.10997 l 5.7613,-5.3188 7.42912,2.28057 c 4.08601,1.25431 7.67947,2.45323 7.98547,2.66425 1.86696,1.28752 -8.23577,10.86329 -14.90212,14.12483 -6.51066,3.18537 -10.43668,3.99907 -21.79758,4.51771 l -13.85666,0.63258 11.80959,-6.79117 z"
               style="fill:#ffffff;stroke:#000000;stroke-width:0;stroke-miterlimit:4;stroke-opacity:1;stroke-dasharray:none" />
            <path
               style="fill:#b3b3b3;fill-opacity:0.59589042;stroke:none"
               d="m 248.66889,213.95129 c 0.34409,-6.28277 1.60668,-8.1725 11.27895,-16.88132 4.37023,-3.93491 8.42792,-8.00825 9.01708,-9.05185 0.86041,-1.52408 1.0712,-2.87955 1.0712,-6.88827 0,-4.65312 -0.1173,-5.19878 -1.73366,-8.06422 -0.95351,-1.69037 -3.15422,-4.52337 -4.89046,-6.29555 -3.07171,-3.1353 -12.62322,-10.49278 -13.09129,-10.08416 -0.12844,0.11212 1.05469,2.61824 2.62918,5.56917 3.59582,6.73936 4.31801,8.82276 4.31137,12.4376 -0.01,5.409 -4.40349,10.88466 -12.02422,14.98571 -7.30338,3.93027 -10.79265,8.06218 -10.79265,12.78038 0,2.88421 0.65247,4.25454 3.63349,7.6312 1.93362,2.19024 9.29828,8.05035 10.11724,8.05035 0.13439,0 0.34759,-1.88507 0.47377,-4.18904 l 0,0 z"
               id="path3186"
               inkscape:connector-curvature="0" />
            <path
               style="fill:#ffffff;fill-opacity:0.59589042;stroke:none"
               d="m 254.25423,212.58918 c 0.35115,-4.745 1.63961,-6.1722 11.51012,-12.74945 4.45981,-2.9718 8.60066,-6.04815 9.2019,-6.83632 0.87804,-1.15105 1.09315,-2.17475 1.09315,-5.2023 0,-3.51422 -0.1197,-3.92632 -1.76919,-6.09042 -0.97305,-1.27663 -3.21887,-3.41623 -4.99069,-4.75465 -3.13467,-2.3679 -12.88195,-7.92457 -13.35961,-7.61596 -0.13107,0.0847 1.07631,1.9774 2.68307,4.20606 3.66952,5.08983 4.40651,6.6633 4.39973,9.39337 -0.0102,4.08509 -4.49374,8.22053 -12.27067,11.31781 -7.45306,2.9683 -11.01385,6.08888 -11.01385,9.65225 0,2.17827 0.66584,3.2132 3.70796,5.76339 1.97325,1.65416 9.48886,6.07995 10.3246,6.07995 0.13715,0 0.35472,-1.42368 0.48348,-3.16373 l 0,0 z"
               id="path3186-8"
               inkscape:connector-curvature="0" />
          </g>
        </g>
        <rect
           style="fill:#000000;fill-opacity:0.35616443;stroke:none"
           id="rect4763"
           width="73.643852"
           height="7.5575604"
           x="315.52673"
           y="66.427536"
           rx="31.848042"
           ry="3.7787802" />
      </g>
    </g>
    <g
       id="g4456"
       transform="translate(-97.24971,213.88471)">
      <g
         id="g4715"
         transform="translate(210.11173,-70.710678)">
        <text
           xml:space="preserve"
           style="font-size:40px;font-style:normal;font-weight:normal;line-height:125%;letter-spacing:0px;word-spacing:0px;fill:#000000;fill-opacity:1;stroke:none;font-family:Sans"
           x="67.568726"
           y="256.1311"
           id="text4735"
           sodipodi:linespacing="125%"><tspan
             sodipodi:role="line"
             id="tspan4737"
             x="67.568726"
             y="256.1311"
             style="font-size:48px;font-style:italic;font-variant:normal;font-weight:bold;font-stretch:normal;font-family:cmr10;-inkscape-font-specification:cmr10 Bold Italic">AttrSearchable</tspan></text>
        <g
           id="g4725"
           transform="matrix(0.98688006,-0.16145506,0.16145506,0.98688006,178.75043,-234.69027)">
          <path
             transform="translate(-726.52978,134.29262)"
             d="m 618.57143,122.36218 c 0,40.23789 -32.61925,72.85714 -72.85714,72.85714 -40.23788,0 -72.85714,-32.61925 -72.85714,-72.85714 0,-40.237884 32.61926,-72.857137 72.85714,-72.857137 40.23789,0 72.85714,32.619253 72.85714,72.857137 z"
             sodipodi:ry="72.85714"
             sodipodi:rx="72.85714"
             sodipodi:cy="122.36218"
             sodipodi:cx="545.71429"
             id="path4141"
             style="fill:none;stroke:#000000;stroke-width:5;stroke-miterlimit:4;stroke-opacity:1;stroke-dasharray:none"
             sodipodi:type="arc" />
          <path
             inkscape:connector-curvature="0"
             id="path4143"
             d="m -156.51336,326.14345 5.40407,10.28405 16.21219,-9.79433 -4.95372,-9.79433"
             style="fill:none;stroke:#000000;stroke-width:2.5;stroke-linecap:butt;stroke-linejoin:miter;stroke-miterlimit:4;stroke-opacity:1;stroke-dasharray:none" />
          <path
             sodipodi:nodetypes="cccccc"
             inkscape:connector-curvature="0"
             id="path4145"
             d="m -150.21162,335.56039 -5.45813,3.91563 41.59141,83.5371 26.089366,-18.92919 -41.481766,-82.22824 -6.00394,3.91562"
             style="fill:none;stroke:#000000;stroke-width:0.83555502px;stroke-linecap:butt;stroke-linejoin:miter;stroke-opacity:1" />
          <path
             sodipodi:nodetypes="cscssccscc"
             inkscape:connector-curvature="0"
             id="path4434"
             d="m -115.05756,420.01443 c -0.17277,-0.31027 -8.63349,-16.83144 -19.7294,-39.36502 l -20.1744,-40.97015 2.21878,-1.59967 c 1.42514,-1.02748 2.30415,-1.51978 2.45743,-1.37635 0.2798,0.26183 14.79208,-9.52165 14.7987,-9.97657 0.003,-0.22689 5.71817,-4.17603 5.8364,-4.03314 0.13288,0.16059 40.850304,81.03625 40.860942,81.13882 1.778669,17.14767 -20.713092,23.45516 -24.809752,19.03337 -0.15809,0.10792 -1.27093,-2.51399 -1.4587,-2.85129 z"
             style="fill:#502d16;stroke:#000000;stroke-width:3;stroke-miterlimit:4;stroke-opacity:1;stroke-dasharray:none" />
          <path
             sodipodi:nodetypes="csssscsscc"
             inkscape:connector-curvature="0"
             id="path4442"
             d="m -124.0327,392.68902 c -6.62011,-13.41695 -7.20946,-15.33567 -7.17412,-15.37551 0.076,-0.0857 2.28533,1.72403 5.41452,7.27887 3.83219,6.80282 6.58124,9.66827 8.63778,12.75115 4.70849,7.05825 7.15751,11.50987 10.88324,13.86059 l 7.905291,3.94106 -3.135231,2.82536 c -0.65436,0.58968 -5.09176,1.28942 -6.5931,1.08075 -1.41412,-0.19655 -2.45791,-0.60997 -3.59172,-1.09376 z"
             style="fill:#ffffff;stroke:#000000;stroke-width:0;stroke-miterlimit:4;stroke-opacity:1;stroke-dasharray:none" />
          <path
             inkscape:connector-curvature="0"
             id="path4448"
             d="m -204.34692,317.82098 c -15.63124,-9.34983 -26.10536,-20.35704 -32.17274,-33.8102 -8.11105,-17.98458 -7.18124,-38.74887 2.61644,-58.42957 2.77603,-5.57625 6.60387,-11.48777 10.41239,-16.08036 2.08458,-2.51374 6.16995,-6.94291 6.29169,-6.82117 0.0513,0.0513 -0.30754,1.48519 -0.79734,3.18651 -3.31,11.49727 -5.798,24.84982 -6.82215,36.61307 -0.52389,6.01742 -0.38631,18.96573 0.25526,24.02326 1.538,12.12395 4.1029,21.1081 8.83195,30.93592 3.60617,7.49425 9.18957,15.81403 14.6175,21.78141 0.28427,0.31252 0.41181,0.56746 0.28342,0.56653 -0.12838,-0.001 -1.71077,-0.88535 -3.51642,-1.9654 l 0,0 z"
             style="fill:#b3b3b3;stroke:#000000;stroke-width:0;stroke-miterlimit:4;stroke-opacity:1;stroke-dasharray:none" />
        </g>
        <path
           style="fill:#ffffff;fill-opacity:0.88698632;stroke:none"
           d="M 24.612548,115.27865 C -14.806721,104.94433 -37.166221,63.852905 -24.243605,25.492705 -20.976392,15.794135 -14.147447,5.3609847 -5.9838403,-2.4042553 2.9084387,-10.862605 9.5674547,-14.874505 20.628298,-18.437433 44.331753,-26.072808 70.133743,-20.410069 88.307513,-3.5839353 103.88914,10.842255 111.30709,27.601635 111.22904,48.202625 c -0.10048,26.52065 -14.701607,49.83832 -38.870457,62.075185 -13.74806,6.96075 -32.698994,8.94563 -47.746035,5.00084 l 0,0 z m 0.879193,-9.43932 C 12.088766,92.647055 3.7694597,77.580765 -0.82429528,58.180915 -2.7921413,49.870515 -3.0669813,45.735345 -3.0816873,24.216885 c -0.0092,-13.47585 -0.07979,-24.50155026 -0.156839,-24.50155026 -1.085219,0 -9.6115097,16.57829026 -11.8143857,22.97157026 -9.327866,27.07174 -3.817722,53.69558 14.87264772,71.86144 6.67210198,6.484865 10.99781528,9.462975 21.16742228,14.573085 12.172706,6.11664 13.253428,5.32921 4.504583,-3.2821 l 0,0 z"
           id="path4689"
           inkscape:connector-curvature="0" />
      </g>
    </g>
    <g
       id="g4571"
       transform="matrix(0.80390449,0,0,0.82721385,93.19501,-142.66814)">
      <g
         id="g4699">
        <g
           id="g4666">
          <path
             sodipodi:nodetypes="cccc"
             inkscape:connector-curvature="0"
             id="path4101"
             d="m 400.15004,543.31037 c -14.44681,-36.15532 18.73136,-134.41909 56.05851,-146.66084 -4.54357,-10.51547 -13.41749,-13.84545 -27.42839,-18.11856 24.27149,-8.90615 44.81947,-20.80814 62.75788,-4.0579"
             style="fill:none;stroke:#000000;stroke-width:4.93286467;stroke-linecap:butt;stroke-linejoin:miter;stroke-miterlimit:4;stroke-opacity:1;stroke-dasharray:none" />
          <path
             sodipodi:nodetypes="cc"
             inkscape:connector-curvature="0"
             id="path4103"
             d="m 491.10095,375.56737 c 31.33326,-27.14458 91.2733,-33.34157 126.00463,0.12818"
             style="fill:none;stroke:#000000;stroke-width:4.93286467;stroke-linecap:butt;stroke-linejoin:miter;stroke-miterlimit:4;stroke-opacity:1;stroke-dasharray:none" />
          <path
             sodipodi:nodetypes="cc"
             inkscape:connector-curvature="0"
             id="path4105"
             d="m 617.84269,375.42808 c 14.48541,-2.61062 25.32143,-3.72326 32.56226,11.57722"
             style="fill:none;stroke:#000000;stroke-width:4.93286467;stroke-linecap:butt;stroke-linejoin:miter;stroke-miterlimit:4;stroke-opacity:1;stroke-dasharray:none" />
          <path
             sodipodi:nodetypes="cccccc"
             inkscape:connector-curvature="0"
             id="path4107"
             d="m 649.80491,385.35161 c -0.50067,5.48073 -13.99352,14.67572 -23.09864,16.80276 -29.29582,26.77278 -30.92463,19.05333 -63.6397,31.51321 5.9174,25.73839 -12.06636,30.47916 -27.82896,42.84742 1.73964,-12.79535 8.45051,-22.71603 -2.82962,-30.78712 -38.50641,9.64738 -84.91808,25.80569 -110.66703,101.91227"
             style="fill:none;stroke:#000000;stroke-width:4.93286467;stroke-linecap:butt;stroke-linejoin:miter;stroke-miterlimit:4;stroke-opacity:1;stroke-dasharray:none" />
          <path
             sodipodi:nodetypes="ccccc"
             inkscape:connector-curvature="0"
             id="path4111"
             d="m 400.45006,544.13721 c -37.62971,2.71316 -38.34621,20.79299 -49.14574,34.67534 19.31233,7.47676 37.42432,4.04304 53.8349,-14.85567 4.863,19.61806 13.35019,35.03302 39.89985,29.50019 2.83131,-14.5973 -2.57689,-29.80285 -22.561,-46.08438"
             style="fill:none;stroke:#000000;stroke-width:4.93286467;stroke-linecap:butt;stroke-linejoin:miter;stroke-miterlimit:4;stroke-opacity:1;stroke-dasharray:none" />
          <path
             sodipodi:nodetypes="csssssscsssssssccscssscssccssssssscsscsscssscssccscscccc"
             inkscape:connector-curvature="0"
             id="path4226"
             d="m 444.8652,590.15858 c 1.1197,-8.76996 -1.85896,-18.64675 -8.26519,-27.40609 -3.62005,-4.94976 -12.81669,-14.11905 -14.97897,-14.93446 -0.62629,-0.23618 -0.027,-2.05654 3.86221,-11.73087 4.76938,-11.86391 7.3039,-17.20557 11.99961,-25.28999 9.80157,-16.87499 22.76621,-31.3171 37.35878,-41.61629 4.37625,-3.08866 12.16837,-7.70306 17.66321,-10.45991 8.23888,-4.13359 37.37072,-13.93018 40.03011,-13.46153 0.41378,0.0729 1.71379,1.14085 2.88892,2.37319 1.93108,2.02506 2.22826,2.53593 3.08942,5.31089 1.20282,3.87585 1.03417,6.74063 -0.89426,15.19127 -0.77422,3.39275 -1.29989,6.22679 -1.16814,6.29785 0.33733,0.18194 13.99118,-9.30834 17.08777,-11.87706 7.39672,-6.13584 10.53111,-13.17322 9.84014,-22.09329 -0.16103,-2.07879 -0.4472,-4.51307 -0.63592,-5.40954 l -0.34314,-1.62994 6.89609,-2.49482 c 3.79256,-1.37296 10.64427,-3.54461 15.22551,-4.82732 4.58123,-1.28271 9.74421,-2.84352 11.47331,-3.46847 7.01739,-2.53672 13.87533,-6.94338 23.32798,-14.99117 6.45522,-5.49586 6.58974,-5.58551 11.41923,-7.6105 2.68786,-1.12702 6.3321,-2.9805 8.09828,-4.11885 5.35082,-3.44869 10.02183,-8.14933 9.98673,-10.05005 -0.0215,-1.16246 -2.88981,-5.10567 -5.03983,-6.92842 -5.08806,-4.31359 -11.80404,-5.30625 -22.67125,-3.35096 -1.7636,0.31731 -3.26026,0.42892 -3.3259,0.24803 -0.0656,-0.1809 -0.30869,-0.15091 -0.54011,0.0667 -0.26882,0.25272 -1.23968,-0.34398 -2.68838,-1.65235 -7.77686,-7.02345 -18.60016,-13.01855 -29.61251,-16.4026 -29.88722,-9.18419 -66.4092,-2.8459 -90.10187,15.63695 -3.42036,2.66825 -3.69337,2.78133 -4.0881,1.69348 -0.68278,-1.88169 -6.68106,-5.63551 -11.29848,-7.07074 -3.46728,-1.07775 -4.67589,-1.26184 -8.538,-1.30049 -6.72429,-0.0673 -8.98945,0.48813 -25.36348,6.21904 l -15.17328,5.31063 5.21812,1.7369 c 7.23002,2.40657 13.03168,5.63041 16.18434,8.99326 2.35639,2.51348 5.0939,6.87774 4.93799,7.87234 -0.0408,0.25982 -1.12771,0.85472 -2.4155,1.322 -22.53383,8.17648 -48.5044,57.12031 -55.49398,104.58331 -2.21527,15.04287 -1.71583,30.25829 1.2654,38.55072 1.13809,3.16582 1.079,3.2252 -3.86299,3.87996 -19.40335,2.57074 -27.97516,7.59151 -36.23665,21.22491 -1.50653,2.48613 -3.79452,6.11608 -5.08443,8.06654 -1.28988,1.95046 -2.30673,3.67404 -2.25965,3.83018 0.14365,0.47622 6.19422,2.15396 9.95103,2.75924 14.91837,2.40366 28.21617,-2.78123 40.24872,-15.69319 1.25408,-1.34573 2.30089,-2.45436 2.32624,-2.46359 0.0254,-0.009 1.48241,3.9359 3.23802,8.76691 3.09229,8.50748 3.26301,8.87917 5.45463,11.82198 5.45592,7.32599 12.73984,10.59072 22.86526,10.24847 1.88307,-0.0636 4.41012,-0.32477 5.61568,-0.58025 l 2.19193,-0.46453 0.33542,-2.62714 0,0 z"
             style="fill:#d7e3f4;stroke:#000000;stroke-width:0;stroke-miterlimit:4;stroke-opacity:1;stroke-dasharray:none" />
          <path
             inkscape:connector-curvature="0"
             id="path4234"
             d="m 429.62681,525.13958 c 17.92449,-40.38999 48.12856,-65.63841 93.44459,-78.11292 8.82252,-2.42864 9.9368,-2.46059 12.0844,-0.34643 4.05035,3.98729 5.25869,10.00067 3.68578,18.34248 -0.80035,4.24456 -1.09905,7.58666 -0.66378,7.42688 2.36922,-0.86926 18.6855,-13.80436 20.11724,-15.94782 3.16677,-4.741 4.72131,-10.92279 4.19713,-16.69049 l -0.52389,-5.76468 20.19618,-7.38166 c 18.21224,-6.65657 28.6879,-11.50359 26.92123,-12.45645 -1.57148,-0.84757 -52.22926,6.22318 -67.38023,9.40487 -53.93349,11.32597 -81.89787,27.06498 -101.1472,56.928 -5.13887,7.97233 -12.12458,25.00023 -13.98867,34.09784 -1.96772,9.60338 -3.35368,20.96127 -2.60696,21.36401 0.37413,0.20179 2.92301,-4.68686 5.66417,-10.86363 l 0,0 z"
             style="fill:#ffffff;stroke:#000000;stroke-width:0;stroke-miterlimit:4;stroke-opacity:1;stroke-dasharray:none" />
          <path
             inkscape:connector-curvature="0"
             id="path4240"
             d="m 489.90772,374.41512 c -0.22798,-0.62829 -4.33991,-3.30106 -7.04772,-4.58102 -3.72277,-1.75974 -7.53046,-2.63923 -11.72421,-2.70803 -6.41352,-0.10521 -9.18203,0.55276 -23.934,5.6882 l -13.51613,4.70522 3.98449,-0.51347 c 2.19147,-0.28241 7.613,-0.991 12.04786,-1.57463 14.68839,-1.93305 28.02371,-2.38745 36.25224,-1.2353 2.23548,0.31301 4.00733,0.41157 3.93747,0.21903 z"
             style="fill:#afc6e9;fill-opacity:1;stroke:#000000;stroke-width:0;stroke-miterlimit:4;stroke-opacity:1;stroke-dasharray:none" />
          <path
             inkscape:connector-curvature="0"
             id="path4256"
             d="m 399.36388,527.96533 c 1.3175,-10.10594 4.7231,-25.97479 8.22831,-38.3412 6.34999,-22.40279 16.33455,-46.38179 26.79929,-64.36151 4.44756,-7.64144 12.24331,-19.10854 16.27707,-23.94259 l 1.16272,-1.3934 -1.10999,0.38925 c -1.69231,0.59353 -5.99598,3.82374 -9.1375,6.85845 -10.87762,10.50778 -20.88274,26.88227 -29.33542,48.0107 -10.43803,26.09105 -15.51655,51.70805 -14.32265,72.24615 0.15107,2.5989 0.39273,4.88484 0.537,5.07985 0.14428,0.19503 0.5498,-1.85056 0.90116,-4.54571 l 0,0 z"
             style="fill:#afc6e9;stroke:#000000;stroke-width:0;stroke-miterlimit:4;stroke-opacity:1;stroke-dasharray:none" />
          <path
             inkscape:connector-curvature="0"
             id="path4260"
             d="m 608.13093,369.51811 c -0.22918,-0.6316 -11.52439,-6.86194 -15.59207,-8.60047 -13.69814,-5.85452 -31.84465,-8.18978 -48.56408,-6.24961 -9.85177,1.14322 -12.95543,1.90497 -23.97302,5.88388 -10.9973,3.97158 -14.35662,5.62109 -21.06338,10.34266 l -3.15605,2.22185 6.55794,-2.04201 c 26.34988,-8.20483 50.18069,-11.21949 71.77956,-9.08028 10.10392,1.00071 22.59531,3.83198 30.9821,7.02231 2.85245,1.08508 3.26552,1.1535 3.029,0.50167 z"
             style="fill:#afc6e9;stroke:#000000;stroke-width:0;stroke-miterlimit:4;stroke-opacity:1;stroke-dasharray:none" />
          <path
             inkscape:connector-curvature="0"
             id="path4428"
             d="m 356.53995,577.5946 c 2.39346,-4.29342 9.50081,-12.66611 14.67451,-17.28706 4.79758,-4.28502 11.89951,-9.22216 18.35544,-12.7604 l 2.69369,-1.47631 -2.66974,0.49528 c -4.34841,0.80671 -10.60998,2.82703 -13.80384,4.45388 -4.72285,2.40567 -8.84155,6.01165 -12.37321,10.83292 -2.04683,2.79426 -10.01818,15.36908 -10.15316,16.01663 -0.0999,0.47955 0.774,1.09339 1.75323,1.23142 0.45154,0.0637 0.88908,-0.3691 1.52308,-1.50636 l 0,0 z"
             style="fill:#afc6e9;stroke:#000000;stroke-width:0;stroke-miterlimit:4;stroke-opacity:1;stroke-dasharray:none" />
          <path
             inkscape:connector-curvature="0"
             id="path4432"
             d="m 444.65372,589.47435 c 0.50909,-5.64064 0.0595,-8.72029 -2.17879,-14.92381 -2.09162,-5.79718 -3.63001,-8.61901 -6.99306,-12.82752 -2.04148,-2.55471 -9.12966,-10.1056 -9.24824,-9.85197 -0.0435,0.0931 0.68579,1.58734 1.62068,3.32056 3.51595,6.51833 5.4139,10.81912 8.44261,19.13111 3.41828,9.38126 4.39966,13.54874 4.04274,17.16843 l -0.18635,1.88984 1.27621,-0.21793 c 0.70191,-0.11985 1.64781,-0.25987 2.10199,-0.31114 0.73491,-0.083 0.8584,-0.45468 1.12221,-3.37757 l 0,0 z"
             style="fill:#ffffff;stroke:#000000;stroke-width:0;stroke-miterlimit:4;stroke-opacity:1;stroke-dasharray:none" />
          <path
             sodipodi:nodetypes="cc"
             inkscape:connector-curvature="0"
             id="path4664"
             d="m 564.95449,382.17637 c 1.96935,21.64715 33.46357,19.47875 33.6016,-0.32784"
             style="fill:none;stroke:#000000;stroke-width:1.16778159px;stroke-linecap:butt;stroke-linejoin:miter;stroke-opacity:0.34246575" />
          <g
             transform="translate(-1.346185,-1.1351879)"
             id="g4184">
            <path
               style="fill:none;stroke:#000000;stroke-width:2.38352346;stroke-linecap:butt;stroke-linejoin:miter;stroke-miterlimit:4;stroke-opacity:0.19863012;stroke-dasharray:none"
               d="m 507.58456,362.6817 c -0.52195,-23.66528 43.29356,44.46189 55.52851,19.16513"
               id="path3963-7"
               inkscape:connector-curvature="0"
               sodipodi:nodetypes="cc" />
            <path
               sodipodi:type="arc"
               style="fill:#feffff;fill-opacity:0.93835617;stroke:#c19c1c;stroke-width:1.54430449;stroke-miterlimit:4;stroke-opacity:1;stroke-dasharray:none"
               id="path3187"
               sodipodi:cx="555.13635"
               sodipodi:cy="175.52391"
               sodipodi:rx="10.942242"
               sodipodi:ry="10.212759"
               d="m 566.07859,175.52391 c 0,5.64035 -4.899,10.21276 -10.94224,10.21276 -6.04323,0 -10.94224,-4.57241 -10.94224,-10.21276 0,-5.64035 4.89901,-10.21276 10.94224,-10.21276 6.04324,0 10.94224,4.57241 10.94224,10.21276 z"
               transform="matrix(1.4793229,0,0,1.5443037,-237.94453,110.1962)" />
            <path
               style="fill:none;stroke:#000000;stroke-width:2.38352346;stroke-linecap:butt;stroke-linejoin:miter;stroke-miterlimit:4;stroke-opacity:1;stroke-dasharray:none"
               d="m 508.08569,363.554 c -6.83199,-31.90761 42.57087,42.56241 54.80582,17.26565"
               id="path3963"
               inkscape:connector-curvature="0"
               sodipodi:nodetypes="cc" />
            <path
               style="fill:#c19c1c;fill-opacity:1;stroke:#c19c1c;stroke-width:3.51883531;stroke-linecap:butt;stroke-linejoin:miter;stroke-miterlimit:4;stroke-opacity:1;stroke-dasharray:none"
               d="m 566.58595,381.64059 -4.49697,0"
               id="path3959"
               inkscape:connector-curvature="0" />
            <path
               style="fill:#c8c7c8;fill-opacity:1;stroke:none"
               d="m 585.54838,391.2774 c -8.92209,-5.60082 -10.46455,-11.73797 -8.76471,-19.12514 -3.13642,1.07013 -8.79068,7.648 -2.11848,16.34613 3.89707,4.51561 7.17493,3.8509 10.88319,2.77901 z"
               id="path4177"
               inkscape:connector-curvature="0"
               sodipodi:nodetypes="cccc" />
          </g>
        </g>
      </g>
    </g>
  </g>
</svg>
